<?xml version="1.0" standalone="no"?>
<!DOCTYPE svg PUBLIC "-//W3C//DTD SVG 1.1//EN" "http://www.w3.org/Graphics/SVG/1.1/DTD/svg11.dtd" >
<svg xmlns="http://www.w3.org/2000/svg">
<metadata>
This is a custom SVG webfont generated by Font Squirrel.
Copyright   : Font data copyright Punchcut 2009
Designer    : Punchcut
Foundry URL : Punchcutcom
</metadata>
<defs>
<font id="AmbleBold" horiz-adv-x="1199" >
<font-face units-per-em="2048" ascent="1548" descent="-500" />
<missing-glyph horiz-adv-x="492" />
<glyph unicode=" "  horiz-adv-x="492" />
<glyph unicode="&#x09;" horiz-adv-x="492" />
<glyph unicode="&#xa0;" horiz-adv-x="492" />
<glyph unicode="!" horiz-adv-x="621" d="M164 1376h298l-25 -938h-248zM175 0v216h275v-216h-275z" />
<glyph unicode="&#x22;" horiz-adv-x="765" d="M79 896v464h269l-73 -474zM427 896v464h267l-72 -474z" />
<glyph unicode="#" horiz-adv-x="1455" d="M102 344v210h242l30 234h-219v210h246l46 362h260l-46 -362h199l46 362h262l-46 -362h209v-210h-236l-30 -234h216v-210h-243l-44 -344h-261l44 344h-199l-44 -344h-260l44 344h-216zM604 554h199l30 234h-199z" />
<glyph unicode="$" d="M142 78l73 216q99 -32 190.5 -53t189.5 -21q95 0 147 39.5t52 111.5q0 36 -17.5 65t-49.5 52.5t-77.5 43.5t-101.5 38q-93 31 -168 69t-128 87.5t-81.5 112t-28.5 141.5q0 74 23.5 137t68 112.5t108 84t143.5 51.5v231h273v-225q46 -7 90 -17.5t83.5 -23t73 -26 t58.5 -26.5l-57 -217q-50 17 -94.5 31.5t-87.5 25t-85.5 16.5t-87.5 6q-101 0 -149.5 -42t-48.5 -108q0 -32 12 -59.5t38 -51.5t67.5 -44.5t101.5 -39.5q115 -36 197 -77t134 -91t76 -111.5t24 -138.5q0 -74 -24 -137t-69 -112.5t-109 -83.5t-144 -50v-254h-272v248 q-94 10 -184 33t-159 57z" />
<glyph unicode="%" horiz-adv-x="1607" d="M93 1076q0 71 24.5 127.5t68 95.5t103.5 60t130 21q71 0 131 -21t103.5 -60t68 -95.5t24.5 -127.5q0 -72 -24.5 -128.5t-68 -95.5t-103.5 -59.5t-131 -20.5q-70 0 -130 20.5t-103.5 59.5t-68 95.5t-24.5 128.5zM235 0l916 1360h192l-916 -1360h-192zM297 1076 q0 -73 34 -113.5t88 -40.5q55 0 89.5 40.5t34.5 113.5t-34.5 112.5t-89.5 39.5q-54 0 -88 -39.5t-34 -112.5zM868 286q0 71 24.5 127.5t67.5 95.5t102.5 60t130.5 21q72 0 132 -21t103.5 -60t67.5 -95.5t24 -127.5q0 -72 -24 -128.5t-67.5 -95.5t-103.5 -59.5t-132 -20.5 q-71 0 -130.5 20.5t-102.5 59.5t-67.5 95.5t-24.5 128.5zM1071 286q0 -72 34 -112.5t88 -40.5q56 0 89.5 40.5t33.5 112.5q0 73 -33.5 112.5t-89.5 39.5q-54 0 -88 -39.5t-34 -112.5z" />
<glyph unicode="&#x26;" horiz-adv-x="1372" d="M80 338q0 66 21.5 120.5t60.5 103t94 92.5t122 89l-57 63q-55 60 -81 125.5t-26 120.5q0 72 27 131.5t81 103t134 67.5t186 24q85 0 157.5 -21.5t125 -60.5t82 -93.5t29.5 -120.5q0 -54 -16.5 -97t-47.5 -80.5t-74 -72.5t-95 -73l-59 -41l265 -284q32 36 63.5 76t63.5 82 l175 -150q-31 -49 -66 -94t-75 -87l175 -187l-228 -132l-145 157q-91 -57 -189.5 -88t-201.5 -31q-111 0 -203 25.5t-158.5 72.5t-103 113t-36.5 147zM386 368q0 -81 56.5 -122.5t153.5 -41.5q61 0 115.5 16.5t105.5 46.5l-287 311q-64 -47 -104 -97t-40 -113zM497 1054 q0 -47 22 -83t50 -65l24 -27l12 8q40 27 70.5 48.5t51 43t31 45t10.5 54.5q0 23 -10 42t-27.5 33t-41 21.5t-51.5 7.5q-27 0 -52 -9t-45 -25.5t-32 -40t-12 -53.5z" />
<glyph unicode="'" horiz-adv-x="374" d="M69 916v444h269l-72 -454z" />
<glyph unicode="(" horiz-adv-x="765" d="M128 560q0 142 29 279t80.5 261t121.5 229.5t153 184.5l185 -60q-50 -66 -99 -154t-87 -199t-61.5 -246t-23.5 -295q0 -153 22.5 -282.5t59.5 -237t83.5 -193t93.5 -149.5l-182 -60q-81 93 -149.5 197.5t-119 220t-78.5 241.5t-28 263z" />
<glyph unicode=")" horiz-adv-x="765" d="M72 -302q49 66 97.5 153.5t86.5 198.5t62 246t24 296q0 153 -23 282.5t-59.5 237t-83.5 192.5t-95 150l183 60q84 -93 153.5 -197.5t119 -220t77 -242t27.5 -262.5q0 -142 -29 -279t-81 -261t-122.5 -229.5t-153.5 -184.5z" />
<glyph unicode="*" horiz-adv-x="1053" d="M88 1011l89 179l278 -136l-21 306h207l-20 -298l275 146l92 -177l-315 -126l230 -242l-160 -118l-193 262l-191 -277l-170 117l222 251z" />
<glyph unicode="+" horiz-adv-x="1125" d="M102 550v218h332v316h262v-316h330v-218h-330v-318h-262v318h-332z" />
<glyph unicode="," horiz-adv-x="587" d="M116 -272l80 484h282l-168 -516z" />
<glyph unicode="-" horiz-adv-x="764" d="M102 570v226h563v-226h-563z" />
<glyph unicode="." horiz-adv-x="573" d="M146 0v244h284v-244h-284z" />
<glyph unicode="/" horiz-adv-x="891" d="M54 -140l561 1500h222l-561 -1500h-222z" />
<glyph unicode="0" d="M98 677q0 161 32.5 291t96 221.5t157 141t214.5 49.5q123 0 217.5 -49.5t159 -141t98 -221.5t33.5 -291q0 -162 -33.5 -291t-98 -219.5t-159 -138.5t-217.5 -48q-121 0 -214.5 48t-157 138.5t-96 219.5t-32.5 291zM396 677q0 -238 49.5 -358.5t152.5 -120.5 q104 0 155.5 120.5t51.5 358.5q0 245 -51.5 371t-155.5 126q-103 0 -152.5 -126t-49.5 -371z" />
<glyph unicode="1" d="M195 1051v197l369 112h230v-1164h272v-196h-845v196h275v933z" />
<glyph unicode="2" d="M126 1237q34 23 84 48t111 46t131 35t144 14q105 0 194.5 -26.5t154 -76.5t101 -121t36.5 -160q0 -82 -28.5 -146t-78 -117.5t-116 -100t-142.5 -94.5q-57 -36 -106.5 -69.5t-87.5 -70.5t-62.5 -81t-30.5 -99h662v-218h-961l-1 127q0 98 27 179.5t80.5 152t133 133 t184.5 122.5q62 35 104 66.5t68 63.5t37.5 66t11.5 75q0 35 -16 64.5t-44.5 51t-68 33.5t-86.5 12q-54 0 -102.5 -9t-93 -23.5t-86 -33t-81.5 -36.5z" />
<glyph unicode="3" d="M106 76l61 192q70 -30 154 -50t181 -20q65 0 118 12.5t90.5 36.5t58 59.5t20.5 82.5q0 54 -21 91.5t-58 61t-87.5 34t-110.5 10.5h-187v218h187q49 0 92 11.5t74 34.5t49 58.5t18 83.5q0 42 -18 73.5t-51 53t-79 32t-102 10.5q-87 0 -158.5 -16.5t-133.5 -41.5l-78 178 q33 20 80 38t100.5 31.5t110.5 21.5t110 8q115 0 208.5 -27.5t160 -77t103 -118.5t36.5 -153q0 -109 -62.5 -188t-174.5 -119q132 -40 206 -126t74 -205q0 -86 -38.5 -157t-109 -122t-169.5 -79t-221 -28q-58 0 -119.5 7t-119.5 19.5t-108 30t-86 39.5z" />
<glyph unicode="4" d="M62 244v182l564 934h343v-896h171v-220h-171v-244h-298v244h-609zM338 464h333v553z" />
<glyph unicode="5" d="M127 665l97 695h777v-220h-542l-50 -289q48 11 105 17.5t127 6.5q105 0 188.5 -30.5t142 -87.5t90 -138t31.5 -181q0 -102 -38 -186.5t-110.5 -145t-177.5 -93.5t-238 -33q-54 0 -111.5 5.5t-111 15.5t-99.5 24t-78 31l45 200q66 -26 140 -42t172 -16q142 0 222 59 t80 181q0 58 -16 100t-45 68t-69.5 38.5t-89.5 12.5q-26 0 -53.5 -2t-53.5 -6t-49.5 -10t-41.5 -14z" />
<glyph unicode="6" d="M108 666q0 162 42.5 294t119.5 225t186 144t243 51q56 0 98 -3.5t75.5 -10t60.5 -15.5t54 -19l-41 -202q-39 14 -89.5 23t-108.5 9q-66 0 -123 -23.5t-100.5 -73t-71 -126t-36.5 -181.5q63 62 140 88t167 26q191 0 291 -109t100 -316q0 -99 -34 -184.5t-98.5 -148.5 t-157 -98.5t-210.5 -35.5q-124 0 -218.5 47t-158.5 135.5t-97 215.5t-33 288zM416 571q10 -194 65 -283.5t155 -89.5q46 0 81 19t57.5 50.5t34 73t11.5 85.5q0 51 -9.5 95.5t-32 77.5t-59 52t-89.5 19q-57 0 -113 -21t-101 -78z" />
<glyph unicode="7" d="M95 1152v208h1006v-146l-514 -1214h-294l489 1152h-687z" />
<glyph unicode="8" d="M84 385q0 108 61.5 189t170.5 127q-87 45 -134 119t-47 173q0 92 33 164t93 121.5t145 75.5t190 26q106 0 192 -26t147.5 -75.5t95 -121.5t33.5 -164q0 -99 -48.5 -173t-136.5 -119q110 -46 172.5 -127t62.5 -189q0 -97 -37.5 -172.5t-106 -127t-164 -78.5t-210.5 -27 q-114 0 -208.5 27t-162 78.5t-104.5 127t-37 172.5zM385 391q0 -46 15.5 -82t43.5 -60.5t67 -37.5t85 -13q47 0 87 13t69 37.5t45 60.5t16 82q0 47 -16 85t-45 64.5t-69 40.5t-87 14q-46 0 -85 -14.5t-67 -41t-43.5 -64t-15.5 -84.5zM434 987q0 -89 45 -138t117 -49 q75 0 121.5 48.5t46.5 138.5q0 84 -46.5 129.5t-121.5 45.5q-72 0 -117 -45.5t-45 -129.5z" />
<glyph unicode="9" d="M85 927q0 96 34.5 178.5t100 143.5t159 96t211.5 35q132 0 227 -47.5t156.5 -138.5t90.5 -223t29 -301q0 -156 -39.5 -283t-112 -217.5t-176 -140t-232.5 -49.5q-57 0 -100 3.5t-77 10t-62 15.5t-55 19l39 204q42 -15 94 -24.5t112 -9.5q63 0 115 23t90.5 70.5t63 121 t31.5 174.5q-62 -60 -138 -86.5t-155 -26.5q-98 0 -174 33.5t-127.5 94t-78 143.5t-26.5 182zM380 925q0 -49 10 -93t33.5 -77t60.5 -52t91 -19q27 0 55 4.5t55 16t52 31t47 48.5q-6 112 -24 185t-46 116t-65 60t-81 17q-50 0 -85.5 -19t-58.5 -51t-33.5 -75.5t-10.5 -91.5z " />
<glyph unicode=":" horiz-adv-x="614" d="M156 670v244h284v-244h-284zM156 0v244h284v-244h-284z" />
<glyph unicode=";" horiz-adv-x="574" d="M95 -272l80 484h282l-168 -516zM156 673v244h284v-244h-284z" />
<glyph unicode="&#x3c;" horiz-adv-x="1086" d="M96 386v244l885 348v-256l-585 -214l585 -214v-256z" />
<glyph unicode="=" horiz-adv-x="1151" d="M112 266v206h931v-206h-931zM112 662v206h931v-206h-931z" />
<glyph unicode="&#x3e;" horiz-adv-x="1094" d="M108 38v256l584 214l-584 214v256l886 -348v-244z" />
<glyph unicode="?" horiz-adv-x="1044" d="M66 1264q33 19 78.5 40t102.5 37.5t124.5 27.5t144.5 11q96 0 174.5 -24.5t135 -70t87.5 -110.5t31 -147q0 -74 -24 -132t-62 -106t-85 -88t-94 -78q-25 -23 -44 -45.5t-31.5 -51t-18.5 -65.5t-6 -88h-270q0 77 8 136t27.5 106t51 85t79.5 73q44 32 76.5 59.5t54.5 54.5 t32.5 55t10.5 63q0 33 -14 61t-40 48.5t-62.5 31.5t-81.5 11q-49 0 -92.5 -7t-83.5 -19t-77.5 -27.5t-73.5 -32.5zM311 0v212h273v-212h-273z" />
<glyph unicode="@" horiz-adv-x="1851" d="M95 404v28q0 14 1 28q9 207 74 374.5t178.5 285t272 181t353.5 63.5q187 0 332 -57.5t244 -164.5t150.5 -259.5t51.5 -342.5v-28q0 -15 -1 -30q-3 -59 -15.5 -119t-36.5 -116t-60.5 -104.5t-87.5 -84.5t-117 -57t-148 -21q-80 0 -136.5 43t-81.5 121q-94 -160 -286 -160 q-66 0 -119.5 24.5t-90.5 69.5t-57 109t-20 144q0 17 1 34t3 35q13 121 52 219.5t97.5 168t134.5 107t163 37.5q69 0 121 -8t94.5 -22t78 -32.5t71.5 -39.5l-3 -4h5l-54 -544q-1 -11 -1.5 -20t-0.5 -18q0 -38 7 -61t17.5 -36.5t24 -18t26.5 -4.5q55 0 98 28t73.5 76.5 t47.5 114t20 139.5q1 16 1 31v30q0 155 -36 279.5t-110.5 212t-188 134.5t-267.5 47q-152 0 -273.5 -53t-208.5 -151.5t-136.5 -238t-56.5 -313.5q-1 -15 -1 -30v-30q0 -156 40.5 -281.5t118 -213.5t190.5 -135.5t258 -47.5q47 0 96.5 5.5t96.5 15t89.5 22t76.5 27.5 l34 -142q-38 -22 -86 -38t-101 -26.5t-107.5 -16t-104.5 -5.5q-189 0 -337.5 58.5t-251.5 167t-157 264t-54 350.5zM726 343q0 -94 31.5 -141.5t93.5 -47.5q27 0 54.5 5.5t53 19.5t49 39.5t44.5 66.5l47 464q-25 8 -53 12.5t-60 4.5q-59 0 -103 -23.5t-75 -70t-50.5 -114.5 t-28.5 -158q-3 -30 -3 -57z" />
<glyph unicode="A" horiz-adv-x="1361" d="M50 0l469 1360h325l470 -1360h-294l-93 284h-491l-92 -284h-294zM507 504h349l-175 536z" />
<glyph unicode="B" horiz-adv-x="1308" d="M151 0v1360h467q117 0 208.5 -26t155.5 -74t97.5 -115t33.5 -149q0 -58 -15.5 -105t-39 -83.5t-51.5 -63.5t-54 -45q121 -34 188 -113.5t67 -201.5q0 -86 -36 -157t-103.5 -121.5t-163.5 -78t-216 -27.5h-538zM450 230h217q56 0 102 10.5t78.5 31.5t50.5 54t18 78 q0 91 -56 138t-165 47h-245v-359zM450 795h310q20 28 37 72t17 101q0 80 -54.5 121t-157.5 41h-152v-335z" />
<glyph unicode="C" horiz-adv-x="1132" d="M92 682q0 158 47 287t134 220.5t211.5 141t279.5 49.5q102 0 172.5 -16t121.5 -37l-51 -202q-47 17 -105.5 27t-124.5 10q-87 0 -157 -28t-119 -86.5t-75.5 -149t-26.5 -216.5t27 -217.5t76.5 -150.5t120 -87.5t156.5 -28.5q81 0 148 16.5t118 36.5l47 -203 q-58 -29 -142 -48.5t-205 -19.5q-150 0 -270.5 50.5t-205.5 142.5t-131 221.5t-46 287.5z" />
<glyph unicode="D" horiz-adv-x="1380" d="M151 0v1360h457q154 0 279 -48.5t213 -137t135.5 -213.5t47.5 -279t-47.5 -279.5t-135.5 -215t-213 -138.5t-279 -49h-457zM450 218h136q88 0 160.5 27t123.5 84t79 144.5t28 208.5t-28 208t-79 143t-123.5 82.5t-160.5 26.5h-136v-924z" />
<glyph unicode="E" horiz-adv-x="1092" d="M151 0v1360h876v-220h-577v-346h512v-220h-512v-354h577v-220h-876z" />
<glyph unicode="F" horiz-adv-x="1011" d="M151 0v1360h833v-220h-534v-346h468v-220h-468v-574h-299z" />
<glyph unicode="G" horiz-adv-x="1369" d="M105 680q0 149 50.5 277t144.5 222t229 147.5t305 53.5q110 0 197 -19t150 -47l-43 -201q-57 19 -131.5 34t-163.5 15q-105 0 -187 -32.5t-138 -94t-85.5 -151.5t-29.5 -204q0 -103 27 -191t79 -152.5t128 -101.5t174 -37q45 0 87 5t80 17v306h-251v218h525v-664 q-106 -48 -219.5 -74t-247.5 -26q-159 0 -285.5 56t-214 152t-134 223t-46.5 269z" />
<glyph unicode="H" horiz-adv-x="1447" d="M151 0v1360h298v-572h552v572h299v-1360h-299v568h-552v-568h-298z" />
<glyph unicode="I" horiz-adv-x="853" d="M108 0v170h171v1020h-171v170h641v-170h-172v-1020h172v-170h-641z" />
<glyph unicode="J" horiz-adv-x="943" d="M60 32l38 202q19 -6 45.5 -12t55 -11t58.5 -8t57 -3q48 0 82.5 10t56.5 33t32.5 60t10.5 90v967h298v-979q0 -118 -30 -195.5t-85 -123t-132.5 -64t-172.5 -18.5q-93 0 -176.5 14.5t-137.5 37.5z" />
<glyph unicode="K" horiz-adv-x="1300" d="M149 0v1360h299v-571h156l293 571h310l-351 -674l424 -686h-329l-348 566h-155v-566h-299z" />
<glyph unicode="L" horiz-adv-x="1011" d="M151 0v1360h298v-1140h533v-220h-831z" />
<glyph unicode="M" horiz-adv-x="1690" d="M151 0v1360h338l360 -641l360 641h335v-1360h-299v509l26 471l-333 -602h-179l-337 611l27 -470v-519h-298z" />
<glyph unicode="N" horiz-adv-x="1478" d="M151 0v1360h298v-1l1 1l581 -917v917h299v-1360h-299l-582 919v-919h-298z" />
<glyph unicode="O" horiz-adv-x="1427" d="M82 680q0 161 44.5 290.5t126.5 220.5t199 140t261 49q145 0 261.5 -49t199 -140t127 -220.5t44.5 -290.5q0 -162 -44.5 -291.5t-127 -220.5t-199 -139.5t-261.5 -48.5q-144 0 -261 48.5t-199 139.5t-126.5 220.5t-44.5 291.5zM382 680q0 -116 23 -205.5t65.5 -151 t104 -93.5t138.5 -32q78 0 140 32t104.5 93.5t65 151t22.5 205.5t-22.5 205.5t-65 151t-104.5 93.5t-140 32q-77 0 -138.5 -32t-104 -93.5t-65.5 -151t-23 -205.5z" />
<glyph unicode="P" horiz-adv-x="1250" d="M151 0v1360h503q130 0 230.5 -31.5t168.5 -88.5t103.5 -137t35.5 -178t-35.5 -178.5t-103.5 -138.5t-168.5 -89.5t-230.5 -31.5h-205v-487h-298zM449 705h183q255 0 255 220q0 112 -63.5 164.5t-191.5 52.5h-183v-437z" />
<glyph unicode="Q" horiz-adv-x="1432" d="M84 680q0 161 44.5 290.5t126.5 220.5t199 140t261 49q145 0 261.5 -49t199 -140t127 -220.5t44.5 -290.5q0 -184 -56.5 -325t-160.5 -232l264 -316h-330l-164 196q-44 -11 -89.5 -17t-95.5 -6q-144 0 -261 48.5t-199 139.5t-126.5 220.5t-44.5 291.5zM384 680 q0 -116 23 -205.5t65.5 -151t104 -93.5t138.5 -32q78 0 140 32t104.5 93.5t65 151t22.5 205.5t-22.5 205.5t-65 151t-104.5 93.5t-140 32q-77 0 -138.5 -32t-104 -93.5t-65.5 -151t-23 -205.5z" />
<glyph unicode="R" horiz-adv-x="1307" d="M151 0v1360h490q129 0 227.5 -29.5t165.5 -84.5t101.5 -133t34.5 -174q0 -58 -17 -110t-45.5 -97.5t-66.5 -83.5t-80 -68l285 -580h-314l-250 514h-232v-514h-299zM450 732h335q15 16 29 35.5t25.5 44.5t18 56t6.5 71q0 108 -57 155.5t-174 47.5h-183v-410z" />
<glyph unicode="S" horiz-adv-x="1100" d="M78 78l72 216q49 -16 95.5 -29.5t92.5 -23.5t92.5 -15.5t95.5 -5.5q94 0 145 39.5t51 111.5q0 36 -17 65t-49 52.5t-77 43.5t-100 38q-92 31 -166 69t-126 87.5t-80.5 112t-28.5 141.5q0 90 34.5 163.5t98 126t153 81.5t200.5 29q62 0 123.5 -9.5t117.5 -24t103 -32.5 t80 -36l-56 -217q-50 17 -94 31.5t-86 25t-84 16.5t-87 6q-99 0 -147.5 -42t-48.5 -108q0 -32 12 -59.5t38 -51.5t67 -44.5t100 -39.5q114 -36 195 -77t132 -91t75 -111.5t24 -138.5q0 -90 -34.5 -163t-98 -125t-153.5 -80.5t-201 -28.5q-59 0 -121.5 7t-123.5 19.5 t-117 30.5t-101 41z" />
<glyph unicode="T" horiz-adv-x="1148" d="M40 1140v220h1070v-220h-385v-1140h-299v1140h-386z" />
<glyph unicode="U" horiz-adv-x="1432" d="M151 440v920h299v-920q0 -59 19.5 -104.5t55 -76t84 -46t107.5 -15.5q60 0 109.5 15.5t85.5 46t55.5 76t19.5 104.5v920h298v-924q0 -109 -41 -193.5t-116 -143t-179.5 -89t-231.5 -30.5q-126 0 -230 31t-178.5 90t-115.5 144.5t-41 194.5z" />
<glyph unicode="V" horiz-adv-x="1312" d="M40 1360h312l211 -696l95 -359l96 360l211 695h309l-453 -1360h-328z" />
<glyph unicode="W" horiz-adv-x="1851" d="M49 1360h312l165 -985l275 985h254l273 -987l168 987h308l-291 -1360h-324l-260 924l-264 -924h-322z" />
<glyph unicode="X" horiz-adv-x="1234" d="M37 0l405 689l-405 671h322l259 -451l261 451h320l-405 -671l405 -689h-322l-258 460l-257 -460h-325z" />
<glyph unicode="Y" horiz-adv-x="1246" d="M40 1360h306l278 -600l281 600h302l-435 -902v-458h-298v464z" />
<glyph unicode="Z" horiz-adv-x="1198" d="M108 0v174l604 967h-598v219h956v-170l-615 -971h662l-43 -219h-966z" />
<glyph unicode="[" horiz-adv-x="857" d="M254 -300v1824h462v-206h-164v-1412h164v-206h-462z" />
<glyph unicode="\" horiz-adv-x="951" d="M38 1360h298l560 -1500h-299z" />
<glyph unicode="]" horiz-adv-x="832" d="M146 -94h162v1412h-162v206h435v-1824h-435v206z" />
<glyph unicode="^" horiz-adv-x="993" d="M91 708l295 652h224l296 -652h-240l-169 390l-168 -390h-238z" />
<glyph unicode="_" horiz-adv-x="973" d="M-1 -88h976v-206h-976v206z" />
<glyph unicode="`" horiz-adv-x="708" d="M56 1360l288 48l253 -244l-206 -52z" />
<glyph unicode="a" horiz-adv-x="1138" d="M74 272q0 69 34.5 129.5t95 105.5t143.5 71t180 26h178v18q0 49 -12.5 81t-36.5 51.5t-60.5 27.5t-84.5 8q-39 0 -80.5 -5.5t-80.5 -14.5t-74 -20.5t-60 -23.5l-51 205q36 19 81.5 35t95 28t101 19t100.5 7q102 0 186.5 -18t145 -63t94.5 -122t34 -195v-622h-268l-19 103 q-20 -17 -51 -37.5t-70.5 -38.5t-87 -30.5t-101.5 -12.5q-81 0 -143 22.5t-104 61.5t-63.5 91.5t-21.5 112.5zM376 296q0 -52 34.5 -80t85.5 -28q38 0 71.5 7.5t61 17.5t47 20t29.5 16v185h-155q-53 -1 -87 -17t-53.5 -38t-26.5 -45t-7 -38z" />
<glyph unicode="b" horiz-adv-x="1238" d="M140 0v1402h301v-475q27 22 55.5 39.5t63 29.5t75 18t91.5 6q95 0 172 -37t131.5 -104.5t84 -163t29.5 -213.5t-29.5 -214t-84 -164.5t-131.5 -106t-172 -37.5q-56 0 -100.5 7.5t-80.5 22.5t-67 36t-60 48l-24 -94h-254zM441 261q38 -28 83.5 -45.5t98.5 -17.5 q58 0 98.5 20t66.5 59t38 95.5t12 129.5q0 146 -50 223t-165 77q-53 0 -98.5 -17.5t-83.5 -44.5v-479z" />
<glyph unicode="c" horiz-adv-x="957" d="M90 502q0 118 36.5 213.5t104.5 163t164.5 104.5t216.5 37q97 0 166.5 -15t118.5 -39l-55 -196q-36 14 -78 23t-104 9q-60 0 -108.5 -17.5t-83 -54t-53 -93t-18.5 -135.5t18.5 -136t53 -94.5t83 -55.5t108.5 -18q36 0 65.5 2.5t54 7.5t46 11.5t42.5 14.5l41 -189 q-49 -28 -118.5 -46.5t-170.5 -18.5q-122 0 -220 37.5t-167 106t-106 164.5t-37 214z" />
<glyph unicode="d" horiz-adv-x="1228" d="M93 502q0 118 29.5 213.5t84 163t131.5 104.5t171 37q49 0 89 -6t74 -17.5t63 -28.5t56 -39v471h298v-1400h-261l-20 84q-28 -25 -57.5 -44t-65 -32.5t-78.5 -20.5t-98 -7q-94 0 -171 37.5t-131.5 106t-84 164.5t-29.5 214zM400 502q0 -73 11.5 -129.5t37 -95.5t65.5 -59 t98 -20q52 0 96.5 16.5t82.5 43.5v484q-38 26 -82.5 43t-96.5 17q-58 0 -98 -19.5t-65.5 -57.5t-37 -94t-11.5 -129z" />
<glyph unicode="e" horiz-adv-x="1106" d="M83 492q0 125 36.5 223.5t103.5 166t161.5 103t210.5 35.5q90 0 168.5 -29t137 -82t92.5 -127t34 -165v-182h-641q14 -115 81 -176t185 -61q85 0 153 12.5t116 26.5l60 -178q-63 -38 -151 -58.5t-191 -20.5q-131 0 -234 34.5t-174.5 100t-109.5 160.5t-38 217zM391 617 h361q0 54 -14 92t-37.5 61t-54 33.5t-64.5 10.5q-38 0 -69 -9.5t-55.5 -32.5t-41 -61t-25.5 -94z" />
<glyph unicode="f" horiz-adv-x="780" d="M44 813l7 187h138v38q0 106 29.5 179t84 118t131.5 65t172 20q56 0 113 -9t97 -21l-17 -204q-30 4 -73 9t-88 5q-79 0 -114.5 -36t-35.5 -126v-38h269v-187h-269v-813h-299v813h-145z" />
<glyph unicode="g" horiz-adv-x="1184" d="M42 -212q0 68 42.5 123.5t136.5 98.5q-25 28 -44 64.5t-19 84.5q0 34 8.5 61.5t24 51t37 44t48.5 38.5q-83 44 -129.5 116.5t-46.5 175.5q0 89 35 158.5t99 117.5t152.5 73t195.5 25q93 0 175 -20h386l-17 -140h-133q34 -44 52 -97t18 -117q0 -88 -35 -154.5 t-98.5 -111.5t-152 -67.5t-195.5 -22.5q-38 0 -74 3t-70 8q-13 -16 -20 -35.5t-7 -46.5q0 -20 7 -42t20 -39h246q122 0 206.5 -23.5t136 -65.5t74.5 -100q22 -56 22 -121v-6q-3 -73 -44.5 -131t-114 -99t-172 -63t-217.5 -22q-62 0 -125 5.5t-122.5 18t-111.5 33.5 t-90.5 52.5t-61 73.5t-22.5 98zM348 -177q0 -37 25.5 -59t62 -33.5t76 -15t68.5 -3.5q59 0 105.5 10t79 27.5t49.5 41t17 51.5q0 21 -7.5 39.5t-27.5 32t-54.5 21.5t-88.5 8h-244q-31 -22 -46 -49.5t-15 -70.5zM401 646q0 -80 45 -123t136 -43t135.5 43t44.5 123 q0 84 -47.5 126t-132.5 42t-133 -42t-48 -126z" />
<glyph unicode="h" horiz-adv-x="1238" d="M140 0v1400h301v-487q66 51 141 79t162 28q81 0 146.5 -18t112 -62t71.5 -118.5t25 -187.5v-634h-298v634q0 92 -33 130t-106 38q-64 0 -118.5 -21.5t-102.5 -56.5v-724h-301z" />
<glyph unicode="i" horiz-adv-x="621" d="M160 1190v212h305v-212h-305zM164 0v1000h298v-1000h-298z" />
<glyph unicode="j" horiz-adv-x="622" d="M-148 -416l34 197q12 -3 30 -6t39 -6t44 -5t44 -2q38 0 65 8.5t44.5 28t25.5 52t8 79.5v1070h298v-1070q0 -116 -29 -191t-79.5 -118.5t-118 -61t-144.5 -17.5q-32 0 -68 3t-71.5 9t-67.5 13.5t-54 16.5zM181 1190v212h306v-212h-306z" />
<glyph unicode="k" horiz-adv-x="1118" d="M140 0v1400h301v-771h108l190 371h317l-267 -474l313 -526h-326l-224 406h-111v-406h-301z" />
<glyph unicode="l" horiz-adv-x="621" d="M164 0v1400h298v-1400h-298z" />
<glyph unicode="m" horiz-adv-x="1865" d="M140 0v1000h252l24 -95q70 54 149 84.5t171 30.5q103 0 182 -25.5t123 -90.5q71 55 152 85.5t178 30.5q80 0 145.5 -17.5t112 -61t72 -116t25.5 -183.5v-642h-299v642q0 87 -33.5 123.5t-105.5 36.5q-57 0 -106 -17t-92 -46q1 -10 1.5 -20t0.5 -21v-698h-299v674 q0 71 -33 99.5t-106 28.5q-62 0 -114.5 -20t-98.5 -53v-729h-301z" />
<glyph unicode="n" horiz-adv-x="1238" d="M140 0v1000h252l28 -104q71 59 150.5 91.5t173.5 32.5q81 0 146.5 -17.5t112 -61t71.5 -117t25 -186.5v-638h-298v638q0 46 -8 77t-25 50.5t-43.5 28t-62.5 8.5q-64 0 -118.5 -22t-102.5 -57v-723h-301z" />
<glyph unicode="o" horiz-adv-x="1210" d="M83 500q0 121 38 217t107 163.5t165.5 103.5t212.5 36q117 0 213 -36t165 -103.5t107 -163.5t38 -217q0 -122 -38 -218t-107 -163.5t-165 -103t-213 -35.5q-116 0 -212.5 35.5t-165.5 103t-107 163.5t-38 218zM383 500q0 -83 16.5 -140.5t46 -93.5t70.5 -52t90 -16 t90.5 16t71 52t46 93.5t16.5 140.5q0 82 -16.5 139.5t-46 93.5t-71 52.5t-90.5 16.5t-90 -16.5t-70.5 -52.5t-46 -93.5t-16.5 -139.5z" />
<glyph unicode="p" horiz-adv-x="1231" d="M140 -400v1400h263l20 -88q28 25 58 45.5t66 34t79.5 21t99.5 7.5q95 0 172 -37t131.5 -105t84 -164t29.5 -214t-29.5 -214t-84 -164t-131.5 -105t-172 -37q-50 0 -90.5 6t-75 18t-63.5 29.5t-56 39.5v-473h-301zM441 260q38 -28 83.5 -45t98.5 -17q115 0 165 77.5 t50 224.5q0 146 -50 224t-165 78q-53 0 -98.5 -17.5t-83.5 -44.5v-480z" />
<glyph unicode="q" horiz-adv-x="1228" d="M93 500q0 118 29.5 214t84 164t131.5 105t171 37q55 0 98.5 -7.5t79.5 -21t66 -34t59 -45.5l24 88h253v-1400h-298v470q-27 -21 -55.5 -38t-62.5 -28.5t-74 -17.5t-90 -6q-94 0 -171 37t-131.5 105t-84 164t-29.5 214zM400 500q0 -74 11.5 -130t37 -94.5t65.5 -58 t98 -19.5q52 0 96.5 16.5t82.5 43.5v484q-38 26 -82.5 43t-96.5 17q-58 0 -98 -20t-65.5 -58t-37 -94.5t-11.5 -129.5z" />
<glyph unicode="r" horiz-adv-x="785" d="M140 0v1000h252l29 -137q59 86 127 121.5t145 35.5q20 0 42 -1t42 -3l-17 -242q-26 5 -52 6.5t-59 1.5q-61 0 -112.5 -34.5t-95.5 -91.5v-656h-301z" />
<glyph unicode="s" horiz-adv-x="974" d="M81 60l41 198q41 -13 79 -25t76 -21t77 -14t82 -5q76 0 113 28t37 77q0 23 -14 40.5t-39 32t-59 25.5t-74 22q-66 17 -122 42.5t-97 61.5t-64 84t-23 110q0 71 30 127.5t86 95.5t136 60t181 21q107 0 194.5 -21t144.5 -45l-46 -202q-38 12 -71 22t-64.5 17.5t-63 11.5 t-67.5 4q-78 0 -114.5 -25t-36.5 -70q0 -22 8.5 -38.5t27.5 -30t49 -25t73 -22.5q169 -45 251.5 -120t82.5 -184q0 -71 -29.5 -128.5t-85.5 -98t-136 -63t-180 -22.5q-52 0 -105 5.5t-102.5 16t-94.5 25.5t-81 33z" />
<glyph unicode="t" horiz-adv-x="829" d="M34 813l10 187h145v260l299 20v-280h282v-187h-282v-452q0 -80 30 -112t102 -32q44 0 82.5 6t66.5 12l24 -208q-22 -8 -50 -14.5t-59 -11t-63 -7.5t-62 -3q-87 0 -155.5 16.5t-116 58t-73 113t-25.5 182.5v452h-155z" />
<glyph unicode="u" horiz-adv-x="1238" d="M140 378v622h301v-622q0 -50 8 -84.5t25 -55.5t43 -30.5t62 -9.5q64 0 119 22t103 58v722h298v-1000h-250l-27 108q-70 -60 -150.5 -94t-174.5 -34q-81 0 -147 18t-112.5 63t-72 122t-25.5 195z" />
<glyph unicode="v" horiz-adv-x="1038" d="M11 1000h304l137 -450l69 -294l73 296l133 448h304l-358 -1000h-304z" />
<glyph unicode="w" horiz-adv-x="1528" d="M49 1000h285l117 -691l207 691h219l204 -685l118 685h285l-252 -1000h-266l1 2l-200 655l-204 -655l2 -2h-263z" />
<glyph unicode="x" horiz-adv-x="1094" d="M43 0l350 508l-341 492h322l176 -298l174 298h321l-340 -492l350 -508h-327l-179 307l-180 -307h-326z" />
<glyph unicode="y" horiz-adv-x="1084" d="M32 1000h304l203 -704l212 704h304l-377 -1050q-30 -106 -68 -175.5t-83 -111t-96.5 -58.5t-108.5 -17q-45 0 -86 5t-76 13l20 208q17 0 24 -0.5t13 -1t16 -1t33 -0.5t42 6t35 21.5t29.5 42.5t27.5 68z" />
<glyph unicode="z" horiz-adv-x="967" d="M76 172l420 609h-413v219h777v-156l-430 -625h485l-42 -219h-796z" />
<glyph unicode="{" horiz-adv-x="805" d="M84 506v167q41 0 75 9t58.5 33t38 65t13.5 105v220q0 109 22.5 190t72 135t127.5 80.5t188 26.5l35 -148q-87 0 -123 -69.5t-36 -214.5v-220q0 -60 -15 -107t-42 -83t-64 -62t-80 -44q43 -17 80 -43t64 -62t42 -83t15 -107v-236q0 -144 36 -214t123 -70l-35 -148 q-110 0 -188 26.5t-127.5 80.5t-72 135t-22.5 190v236q0 64 -13.5 105t-38 65t-58.5 33t-75 9z" />
<glyph unicode="|" horiz-adv-x="474" d="M102 -300v1824h272v-1824h-272z" />
<glyph unicode="}" horiz-adv-x="805" d="M96 -226q87 0 123 69.5t36 214.5v220q0 60 15 107t42 83t63.5 62t79.5 43q-43 18 -79.5 44t-63.5 62t-42 83t-15 107v236q0 145 -36.5 214.5t-122.5 69.5l35 148q109 0 187 -26.5t127 -80.5t72 -135t23 -190v-236q0 -64 13.5 -105t38.5 -65t59 -33t76 -9v-167 q-42 0 -76 -9t-59 -33t-38.5 -65t-13.5 -105v-220q0 -109 -23 -190t-72 -135t-127 -80.5t-187 -26.5z" />
<glyph unicode="~" horiz-adv-x="1413" d="M100 477q22 79 61 134.5t85.5 89.5t96 49.5t91.5 15.5q52 0 94 -7.5t78.5 -22t70.5 -35.5t71 -47q56 -41 104.5 -60.5t100.5 -22.5q24 -2 48 4.5t48 25t46.5 50.5t43.5 82l170 -116q-23 -79 -62 -134t-85.5 -89.5t-95.5 -50t-91 -15.5q-53 0 -95 8t-79 22.5t-71.5 35.5 t-70.5 47q-55 42 -99 61.5t-96 22.5q-23 1 -48.5 -6t-51 -25.5t-50.5 -50.5t-46 -82z" />
<glyph unicode="&#xa1;" horiz-adv-x="569" d="M431.01 -375.916h-297.981l24.998 937.942h247.985zM420.011 1000v-215.986h-274.983v215.986h274.983z" />
<glyph unicode="&#xa2;" d="M179 502q0 100 26.5 184.5t77 149.5t122.5 108.5t163 62.5v167h214v-157q66 -5 116 -18.5t88 -32.5l-55 -196q-36 14 -78 23t-104 9q-60 0 -108.5 -17.5t-83 -54t-53 -93t-18.5 -135.5t18.5 -136t53 -94.5t83 -55.5t108.5 -18q36 0 65.5 2.5t54 7.5t46 11.5t42.5 14.5 l41 -189q-40 -23 -92 -39.5t-124 -22.5v-177h-214v188q-91 19 -163 63.5t-122.5 110t-77 150t-26.5 184.5z" />
<glyph unicode="&#xa3;" horiz-adv-x="1175" d="M100 0v220h8l-6 2q51 0 89 20.5t63 55.5t37.5 81.5t12.5 97.5v101h-197l29 209h168v207q0 105 30.5 178.5t91.5 119.5t152 67t211 21q63 0 129 -9t113 -21l-1 -224q-20 4 -47 8t-57.5 7t-62 5t-60.5 2q-57 0 -95.5 -10.5t-62 -34t-33 -61t-9.5 -90.5v-165h315v-209h-315 v-117q0 -85 -32.5 -141.5t-98.5 -99.5h646v-220h-1018z" />
<glyph unicode="&#xa4;" horiz-adv-x="1425" d="M76 80l145 130q-46 66 -71 143.5t-25 166.5q0 87 23.5 163t68.5 141l-141 127l180 163l140 -129q66 36 141.5 55.5t161.5 19.5t162 -19.5t142 -55.5l141 129l180 -163l-142 -129q44 -64 67.5 -140t23.5 -162q0 -88 -25 -166t-70 -143l144 -131l-179 -162l-147 133 q-64 -35 -138.5 -53t-158.5 -18t-158.5 18t-138.5 53l-146 -133zM386 520q0 -74 23 -133.5t64.5 -101t99 -63.5t126.5 -22t127 22t99 63.5t64 101t23 133.5t-23 133.5t-64 101t-99 64t-127 22.5t-126.5 -22.5t-99 -64t-64.5 -101t-23 -133.5z" />
<glyph unicode="&#xa5;" d="M11 1360h306l278 -600l281 600h302l-345 -714h229v-146h-299l-20 -42v-91h319v-146h-319v-221h-298v221h-295v146h295v98l-17 35h-278v146h207z" />
<glyph unicode="&#xa6;" horiz-adv-x="474" d="M102 -300v814h273v-814h-273zM102 762v762h273v-762h-273z" />
<glyph unicode="&#xa7;" horiz-adv-x="1201" d="M83 468q0 98 44.5 172t124.5 121q-50 45 -78 99t-28 120q0 90 34 164.5t97 127t153 81.5t202 29q61 0 122 -9.5t116.5 -24.5t102 -33t78.5 -36l-52 -214q-49 16 -93.5 30.5t-86.5 24.5t-84 16t-87 6q-99 0 -147 -42.5t-48 -109.5q0 -28 16 -51t49.5 -44t86.5 -41.5 t127 -41.5q199 -57 292.5 -151.5t93.5 -237.5q0 -95 -39.5 -168.5t-110.5 -124.5q45 -43 68.5 -94t23.5 -113q0 -89 -34 -162.5t-96.5 -126t-150.5 -81t-196 -28.5q-60 0 -121.5 8t-120 21.5t-112 32t-97.5 39.5l57 214q50 -16 97 -30t93 -24t92.5 -15.5t94.5 -5.5 q88 0 137.5 40t49.5 112q0 32 -21 56.5t-58.5 44.5t-91 37.5t-117.5 34.5q-86 24 -156.5 59.5t-120.5 82.5t-77.5 106t-27.5 130zM361 503q0 -62 52 -108t169 -83q55 -16 103.5 -32t91.5 -34q31 25 48 60.5t17 83.5q0 72 -61.5 119t-191.5 89q-42 11 -81.5 25t-76.5 30 q-70 -55 -70 -150z" />
<glyph unicode="&#xa8;" horiz-adv-x="1051" d="M123 1226v188h269v-188h-269zM648 1226v188h269v-188h-269z" />
<glyph unicode="&#xa9;" horiz-adv-x="1754" d="M142 680q0 161 56 290.5t155 220.5t233.5 140t291.5 49t292 -49t233.5 -140t154.5 -220.5t56 -290.5t-56 -290.5t-154.5 -220.5t-233.5 -140t-292 -49t-291.5 49t-233.5 140t-155 220.5t-56 290.5zM288 680q0 -147 46 -255t126 -179.5t187.5 -106.5t230.5 -35t230.5 35 t187.5 106.5t126.5 179.5t46.5 255t-46.5 255.5t-126.5 180t-187.5 106.5t-230.5 35t-230.5 -35t-187.5 -106.5t-126 -180t-46 -255.5zM501 670q0 91 25.5 163.5t74 123.5t119 78t160.5 27q91 0 153 -17.5t106 -44.5l-44 -137q-18 8 -38 15.5t-44.5 13t-55 9t-69.5 3.5 q-45 0 -81 -13.5t-61.5 -42t-39.5 -73t-14 -105.5q0 -62 15 -106.5t42.5 -74t65 -43.5t82.5 -14q44 0 76.5 4t58.5 11t47.5 16t42.5 20l45 -135q-23 -15 -48.5 -28.5t-56.5 -23.5t-69 -16t-84 -6q-97 0 -173 28t-128 79.5t-79.5 124.5t-27.5 164z" />
<glyph unicode="&#xaa;" horiz-adv-x="870" d="M64 858q0 48 25.5 89t70.5 70.5t106 46.5t132 17h117v20q0 64 -33 88.5t-94 24.5q-29 0 -60 -4t-61.5 -10.5t-57.5 -14.5t-47 -17l-40 149q28 13 63 24.5t73 20t77.5 13.5t76.5 5q72 0 131.5 -12.5t102 -44.5t66.5 -86t24 -136v-433h-203l-11 72q-17 -13 -39 -28 t-49.5 -27.5t-59.5 -20.5t-68 -8q-59 0 -104.5 15.5t-76 43t-46 64.5t-15.5 79zM286 870q0 -17 8 -29t21 -20t29.5 -12t34.5 -4q41 0 77.5 15t58.5 28v104h-100q-38 -1 -62.5 -10t-39.5 -22t-21 -26.5t-6 -23.5z" />
<glyph unicode="&#xab;" horiz-adv-x="1160" d="M102 428v84l373 406l134 -110l-228 -336l228 -320l-134 -110zM558 428v84l373 406l134 -110l-228 -336l228 -320l-134 -110z" />
<glyph unicode="&#xac;" horiz-adv-x="1227" d="M108 563v220h977v-474h-253v254h-724z" />
<glyph unicode="&#xad;" horiz-adv-x="1159" d="M86 538v194h977v-194h-977z" />
<glyph unicode="&#xae;" horiz-adv-x="1754" d="M142 680q0 161 56 290.5t155 220.5t233.5 140t291.5 49t292 -49t233.5 -140t154.5 -220.5t56 -290.5t-56 -290.5t-154.5 -220.5t-233.5 -140t-292 -49t-291.5 49t-233.5 140t-155 220.5t-56 290.5zM288 680q0 -147 46 -255t126 -179.5t187.5 -106.5t230.5 -35t230.5 35 t187.5 106.5t126.5 179.5t46.5 255t-46.5 255.5t-126.5 180t-187.5 106.5t-230.5 35t-230.5 -35t-187.5 -106.5t-126 -180t-46 -255.5zM603 332v722h302q67 0 121 -13.5t91.5 -41.5t57.5 -71.5t20 -103.5q0 -65 -32.5 -111t-85.5 -75l149 -306h-184l-123 262h-139v-262h-177 zM780 720h145q13 2 28.5 8.5t28.5 17.5t21.5 27t8.5 37q0 50 -32.5 70.5t-85.5 20.5h-114v-181z" />
<glyph unicode="&#xaf;" horiz-adv-x="969" d="M102 1261v161h768v-161h-768z" />
<glyph unicode="&#xb0;" horiz-adv-x="689" d="M101 1150q0 46 19 87.5t52 72t77.5 48.5t95.5 18t95.5 -18t78.5 -48.5t53.5 -72t19.5 -87.5q0 -47 -19.5 -87.5t-53.5 -71t-78.5 -48t-95.5 -17.5t-95.5 17.5t-77.5 48t-52 71t-19 87.5zM220 1150q0 -24 9.5 -45.5t26.5 -37.5t40 -25.5t49 -9.5q27 0 50 9.5t39.5 25.5 t26 37.5t9.5 45.5q0 25 -9.5 46.5t-26 37.5t-39.5 25t-50 9q-26 0 -49 -9t-40 -25t-26.5 -37.5t-9.5 -46.5z" />
<glyph unicode="&#xb1;" horiz-adv-x="1113" d="M96 -2v192h907v-192h-907zM102 617v218h332v316h262v-316h330v-218h-330v-318h-262v318h-332z" />
<glyph unicode="&#xb2;" horiz-adv-x="774" d="M102 1304q22 12 50.5 25.5t63.5 24.5t75.5 18.5t85.5 7.5q131 0 204.5 -53.5t73.5 -148.5q0 -43 -15 -75.5t-42.5 -59.5t-66 -51.5t-86.5 -49.5q-66 -35 -103.5 -64.5t-48.5 -72.5h369v-137h-558l-1 70q0 49 13.5 90t43 76.5t76.5 68t113 65.5q35 17 58.5 31.5t38 29 t20.5 30.5t6 36q0 69 -112 69q-35 0 -63 -4.5t-53.5 -12t-50 -17.5t-51.5 -20z" />
<glyph unicode="&#xb3;" horiz-adv-x="702" d="M67 703l34 123q24 -8 46.5 -15t46 -12t49.5 -8t57 -3q67 0 108 20t41 63q0 45 -33 65t-99 20h-138v136h138q51 0 80.5 17.5t29.5 58.5t-32.5 57.5t-92.5 16.5q-28 0 -51.5 -2t-45.5 -6t-43 -10t-43 -13l-39 115q22 11 50.5 21t60 17.5t63.5 11.5t62 4q75 0 129.5 -14.5 t90.5 -40.5t53 -62.5t17 -80.5q0 -57 -31.5 -97t-90.5 -61q69 -21 106.5 -64.5t37.5 -104.5q0 -92 -74 -147.5t-229 -55.5q-71 0 -139 13.5t-119 37.5z" />
<glyph unicode="&#xb4;" horiz-adv-x="708" d="M123 1152l239 256l290 -48l-335 -248z" />
<glyph unicode="&#xb5;" horiz-adv-x="1240" d="M142 -400l1 1400h301v-681q2 -68 40 -94.5t115 -26.5q60 0 110 20.5t95 55.5v726h298v-1000h-251l-23 94q-57 -54 -120.5 -84t-135.5 -30q-73 0 -128 13v-393h-302z" />
<glyph unicode="&#x3bc;" horiz-adv-x="1240" d="M142 -400l1 1400h301v-681q2 -68 40 -94.5t115 -26.5q60 0 110 20.5t95 55.5v726h298v-1000h-251l-23 94q-57 -54 -120.5 -84t-135.5 -30q-73 0 -128 13v-393h-302z" />
<glyph unicode="&#xb6;" horiz-adv-x="1067" d="M102 942q0 95 34.5 172.5t101 132t163 84t219.5 29.5h324v-1360h-299v520h-25q-123 0 -219.5 30t-163 85.5t-101 133.5t-34.5 173z" />
<glyph unicode="&#xb7;" horiz-adv-x="422" d="M102 0v196h221v-196h-221z" />
<glyph unicode="&#xb8;" horiz-adv-x="639" d="M104 -283q40 3 76 14.5t63.5 31.5t43.5 48.5t16 64.5q0 29 -12 63.5t-40 73.5l239 25q40 -89 40 -168q0 -57 -21.5 -106.5t-66 -88t-112.5 -64t-162 -33.5z" />
<glyph unicode="&#xb9;" horiz-adv-x="513" d="M60 1183v124l166 58h138v-583h108v-114h-399v114h110v437z" />
<glyph unicode="&#xba;" horiz-adv-x="903" d="M88 1017q0 84 26 151.5t74 114.5t115 72t148 25q83 0 151 -25t116.5 -72t75 -114.5t26.5 -151.5q0 -85 -26.5 -152.5t-75 -114t-116.5 -71.5t-151 -25q-81 0 -148 25t-115 71.5t-74 114t-26 152.5zM308 1017q0 -55 11 -93.5t30 -62.5t45 -35t57 -11q33 0 60.5 11t47 35 t30.5 62.5t11 93.5q0 110 -41 156.5t-108 46.5q-31 0 -57 -11t-45 -35.5t-30 -63t-11 -93.5z" />
<glyph unicode="&#xbb;" horiz-adv-x="1162" d="M94 152l226 336l-226 320l134 110l372 -386v-84l-372 -406zM552 152l226 336l-226 320l134 110l372 -386v-84l-372 -406z" />
<glyph unicode="&#xbc;" horiz-adv-x="1448" d="M98 1184v124l166 58h138v-583h108v-114h-399v114h110v437zM186 0l916 1360h192l-916 -1360h-192zM750 125v100l375 475h183v-453h85v-122h-85v-123h-164v123h-394zM925 247h219v281z" />
<glyph unicode="&#xbd;" horiz-adv-x="1565" d="M913 635q22 12 50.5 25.5t63.5 24.5t75.5 18.5t85.5 7.5q131 0 204.5 -53.5t73.5 -148.5q0 -43 -15 -75.5t-42.5 -59.5t-66 -51.5t-86.5 -49.5q-66 -35 -103.5 -64.5t-48.5 -72.5h369v-137h-558l-1 70q0 49 13.5 90t43 76.5t76.5 68t113 65.5q35 17 58.5 31.5t38 29 t20.5 30.5t6 36q0 69 -112 69q-35 0 -63 -4.5t-53.5 -12t-50 -17.5t-51.5 -20zM98 1183v124l166 58h138v-583h108v-114h-399v114h110v437zM203 0l916 1360h192l-916 -1360h-192z" />
<glyph unicode="&#xbe;" horiz-adv-x="1426" d="M67 703l34 123q24 -8 46.5 -15t46 -12t49.5 -8t57 -3q67 0 108 20t41 63q0 45 -33 65t-99 20h-138v136h138q51 0 80.5 17.5t29.5 58.5t-32.5 57.5t-92.5 16.5q-28 0 -51.5 -2t-45.5 -6t-43 -10t-43 -13l-39 115q22 11 50.5 21t60 17.5t63.5 11.5t62 4q75 0 129.5 -14.5 t90.5 -40.5t53 -62.5t17 -80.5q0 -57 -31.5 -97t-90.5 -61q69 -21 106.5 -64.5t37.5 -104.5q0 -92 -74 -147.5t-229 -55.5q-71 0 -139 13.5t-119 37.5zM242 0l916 1360h192l-916 -1360h-192zM765 125v100l375 475h183v-453h85v-122h-85v-123h-164v123h-394zM940 247h219v281 z" />
<glyph unicode="&#xbf;" horiz-adv-x="1043" d="M1017 -266.923q-32.998 -18.999 -78.4951 -39.9971q-45.4971 -20.999 -102.494 -37.498q-56.9961 -16.499 -124.492 -27.498q-67.4961 -11 -144.491 -11q-95.9941 0 -174.489 24.499q-78.4951 24.498 -134.991 69.9951q-56.4971 45.498 -87.4951 110.493 q-30.998 64.9961 -30.998 146.991q0 73.9961 23.999 131.992q23.998 57.9961 61.9961 105.993q37.9971 47.9971 84.9941 87.9951q46.9971 39.9971 93.9941 77.9951q24.999 22.999 43.998 45.4971q18.998 22.499 31.498 50.9971q12.499 28.498 18.499 65.4961 q5.99902 36.998 5.99902 87.9941h269.983q0 -76.9951 -7.99902 -135.991q-8 -58.9961 -27.498 -105.994q-19.499 -46.9971 -50.9971 -84.9941q-31.498 -37.998 -79.4951 -72.9961q-43.998 -31.998 -76.4961 -59.4961t-54.4961 -54.4961q-21.999 -26.999 -32.498 -54.9971 t-10.499 -62.9961q0 -32.998 13.999 -60.9961q13.999 -27.999 39.9971 -48.4971q25.999 -20.499 62.4961 -31.498q36.498 -11 81.4951 -11q48.9971 0 92.4941 7q43.498 7 83.4951 18.999q39.998 11.999 77.4951 27.498q37.498 15.499 73.4961 32.498zM772.019 997v-211.987 h-272.983v211.987h272.983z" />
<glyph unicode="&#xc0;" horiz-adv-x="1361" d="M50 0l469 1360h325l470 -1360h-294l-93 284h-491l-92 -284h-294zM507 504h349l-175 536zM304 1720l288 48l253 -244l-206 -52z" />
<glyph unicode="&#xc1;" horiz-adv-x="1361" d="M50 0l469 1360h325l470 -1360h-294l-93 284h-491l-92 -284h-294zM507 504h349l-175 536zM575 1514l239 256l290 -48l-335 -248z" />
<glyph unicode="&#xc2;" horiz-adv-x="1361" d="M50 0l469 1360h325l470 -1360h-294l-93 284h-491l-92 -284h-294zM507 504h349l-175 536zM341 1472l296 232h174l295 -232h-258l-125 110l-124 -110h-258z" />
<glyph unicode="&#xc3;" horiz-adv-x="1361" d="M50 0l469 1360h325l470 -1360h-294l-93 284h-491l-92 -284h-294zM507 504h349l-175 536zM288 1613q43 72 99 112t112 50q19 3 39 3q59 0 107 -23.5t89 -50.5q31 -24 61 -34.5t52 -8.5q9 1 24 6t32.5 16t36.5 29t37 46l121 -106q-45 -72 -99.5 -112.5t-111.5 -47.5 q-12 -2 -23.5 -3.5t-22.5 -1.5q-57 0 -103 23t-87 52q-33 22 -62 34t-50 10q-10 -1 -23.5 -5t-30.5 -14t-36 -28t-39 -46z" />
<glyph unicode="&#xc4;" horiz-adv-x="1361" d="M50 0l469 1360h325l470 -1360h-294l-93 284h-491l-92 -284h-294zM507 504h349l-175 536zM335 1472v188h269v-188h-269zM860 1472v188h269v-188h-269z" />
<glyph unicode="&#xc5;" horiz-adv-x="1361" d="M50 0l469 1360h325l470 -1360h-294l-93 284h-491l-92 -284h-294zM507 504h349l-175 536zM450 1666q0 40 16.5 75t45 61.5t67 42t81.5 15.5t81.5 -15.5t67 -42t45.5 -61.5t17 -75q0 -41 -17 -76t-45.5 -61.5t-67 -41.5t-81.5 -15t-81.5 15t-67 41.5t-45 61.5t-16.5 76z M575 1666q0 -32 25.5 -55t59.5 -23q37 0 61 23t24 55q0 33 -24 55.5t-61 22.5q-34 0 -59.5 -22.5t-25.5 -55.5z" />
<glyph unicode="&#xc6;" horiz-adv-x="2031" d="M64 1l915 1359h951v-220h-577v-346h512v-220h-512v-354h577v-220h-876v296h-476l-195 -296zM723 516h331v501z" />
<glyph unicode="&#xc7;" horiz-adv-x="1132" d="M92 682q0 158 47 287t134 220.5t211.5 141t279.5 49.5q102 0 172.5 -16t121.5 -37l-51 -202q-47 17 -105.5 27t-124.5 10q-87 0 -157 -28t-119 -86.5t-75.5 -149t-26.5 -216.5t27 -217.5t76.5 -150.5t120 -87.5t156.5 -28.5q81 0 148 16.5t118 36.5l47 -203 q-58 -29 -142 -48.5t-205 -19.5q-150 0 -270.5 50.5t-205.5 142.5t-131 221.5t-46 287.5zM419 -283q40 3 76 14.5t63.5 31.5t43.5 48.5t16 64.5q0 29 -12 63.5t-40 73.5l239 25q40 -89 40 -168q0 -57 -21.5 -106.5t-66 -88t-112.5 -64t-162 -33.5z" />
<glyph unicode="&#xc8;" horiz-adv-x="1092" d="M151 0v1360h876v-220h-577v-346h512v-220h-512v-354h577v-220h-876zM216 1718l288 48l253 -244l-206 -52z" />
<glyph unicode="&#xc9;" horiz-adv-x="1092" d="M151 0v1360h876v-220h-577v-346h512v-220h-512v-354h577v-220h-876zM487 1512l239 256l290 -48l-335 -248z" />
<glyph unicode="&#xca;" horiz-adv-x="1092" d="M151 0v1360h876v-220h-577v-346h512v-220h-512v-354h577v-220h-876zM253 1470l296 232h174l295 -232h-258l-125 110l-124 -110h-258z" />
<glyph unicode="&#xcb;" horiz-adv-x="1092" d="M151 0v1360h876v-220h-577v-346h512v-220h-512v-354h577v-220h-876zM247 1470v188h269v-188h-269zM772 1470v188h269v-188h-269z" />
<glyph unicode="&#xcc;" horiz-adv-x="853" d="M108 0v170h171v1020h-171v170h641v-170h-172v-1020h172v-170h-641zM56 1718l288 48l253 -244l-206 -52z" />
<glyph unicode="&#xcd;" horiz-adv-x="853" d="M108 0v170h171v1020h-171v170h641v-170h-172v-1020h172v-170h-641zM327 1512l239 256l290 -48l-335 -248z" />
<glyph unicode="&#xce;" horiz-adv-x="853" d="M108 0v170h171v1020h-171v170h641v-170h-172v-1020h172v-170h-641zM94 1470l296 232h174l295 -232h-258l-125 110l-124 -110h-258z" />
<glyph unicode="&#xcf;" horiz-adv-x="853" d="M108 0v170h171v1020h-171v170h641v-170h-172v-1020h172v-170h-641zM88 1470v188h269v-188h-269zM613 1470v188h269v-188h-269z" />
<glyph unicode="&#xd0;" horiz-adv-x="1440" d="M102 558v218h106v584h457q154 0 279 -48.5t213 -137t135.5 -213.5t47.5 -279t-47.5 -279.5t-135.5 -215t-213 -138.5t-279 -49h-457v558h-106zM507 218h136q88 0 160.5 27t123.5 84t79 144.5t28 208.5t-28 208t-79 143t-123.5 82.5t-160.5 26.5h-136v-366h254v-218h-254 v-340z" />
<glyph unicode="&#xd1;" horiz-adv-x="1478" d="M151 0v1360h298v-1l1 1l581 -917v917h299v-1360h-299l-582 919v-919h-298zM335 1611q43 72 99 112t112 50q19 3 39 3q59 0 107 -23.5t89 -50.5q31 -24 61 -34.5t52 -8.5q9 1 24 6t32.5 16t36.5 29t37 46l121 -106q-45 -72 -99.5 -112.5t-111.5 -47.5q-12 -2 -23.5 -3.5 t-22.5 -1.5q-57 0 -103 23t-87 52q-33 22 -62 34t-50 10q-10 -1 -23.5 -5t-30.5 -14t-36 -28t-39 -46z" />
<glyph unicode="&#xd2;" horiz-adv-x="1427" d="M82 680q0 161 44.5 290.5t126.5 220.5t199 140t261 49q145 0 261.5 -49t199 -140t127 -220.5t44.5 -290.5q0 -162 -44.5 -291.5t-127 -220.5t-199 -139.5t-261.5 -48.5q-144 0 -261 48.5t-199 139.5t-126.5 220.5t-44.5 291.5zM382 680q0 -116 23 -205.5t65.5 -151 t104 -93.5t138.5 -32q78 0 140 32t104.5 93.5t65 151t22.5 205.5t-22.5 205.5t-65 151t-104.5 93.5t-140 32q-77 0 -138.5 -32t-104 -93.5t-65.5 -151t-23 -205.5zM334 1736l288 48l253 -244l-206 -52z" />
<glyph unicode="&#xd3;" horiz-adv-x="1427" d="M82 680q0 161 44.5 290.5t126.5 220.5t199 140t261 49q145 0 261.5 -49t199 -140t127 -220.5t44.5 -290.5q0 -162 -44.5 -291.5t-127 -220.5t-199 -139.5t-261.5 -48.5q-144 0 -261 48.5t-199 139.5t-126.5 220.5t-44.5 291.5zM382 680q0 -116 23 -205.5t65.5 -151 t104 -93.5t138.5 -32q78 0 140 32t104.5 93.5t65 151t22.5 205.5t-22.5 205.5t-65 151t-104.5 93.5t-140 32q-77 0 -138.5 -32t-104 -93.5t-65.5 -151t-23 -205.5zM605 1530l239 256l290 -48l-335 -248z" />
<glyph unicode="&#xd4;" horiz-adv-x="1427" d="M82 680q0 161 44.5 290.5t126.5 220.5t199 140t261 49q145 0 261.5 -49t199 -140t127 -220.5t44.5 -290.5q0 -162 -44.5 -291.5t-127 -220.5t-199 -139.5t-261.5 -48.5q-144 0 -261 48.5t-199 139.5t-126.5 220.5t-44.5 291.5zM382 680q0 -116 23 -205.5t65.5 -151 t104 -93.5t138.5 -32q78 0 140 32t104.5 93.5t65 151t22.5 205.5t-22.5 205.5t-65 151t-104.5 93.5t-140 32q-77 0 -138.5 -32t-104 -93.5t-65.5 -151t-23 -205.5zM371 1488l296 232h174l295 -232h-258l-125 110l-124 -110h-258z" />
<glyph unicode="&#xd5;" horiz-adv-x="1427" d="M82 680q0 161 44.5 290.5t126.5 220.5t199 140t261 49q145 0 261.5 -49t199 -140t127 -220.5t44.5 -290.5q0 -162 -44.5 -291.5t-127 -220.5t-199 -139.5t-261.5 -48.5q-144 0 -261 48.5t-199 139.5t-126.5 220.5t-44.5 291.5zM382 680q0 -116 23 -205.5t65.5 -151 t104 -93.5t138.5 -32q78 0 140 32t104.5 93.5t65 151t22.5 205.5t-22.5 205.5t-65 151t-104.5 93.5t-140 32q-77 0 -138.5 -32t-104 -93.5t-65.5 -151t-23 -205.5zM318 1629q43 72 99 112t112 50q19 3 39 3q59 0 107 -23.5t89 -50.5q31 -24 61 -34.5t52 -8.5q9 1 24 6 t32.5 16t36.5 29t37 46l121 -106q-45 -72 -99.5 -112.5t-111.5 -47.5q-12 -2 -23.5 -3.5t-22.5 -1.5q-57 0 -103 23t-87 52q-33 22 -62 34t-50 10q-10 -1 -23.5 -5t-30.5 -14t-36 -28t-39 -46z" />
<glyph unicode="&#xd6;" horiz-adv-x="1427" d="M82 680q0 161 44.5 290.5t126.5 220.5t199 140t261 49q145 0 261.5 -49t199 -140t127 -220.5t44.5 -290.5q0 -162 -44.5 -291.5t-127 -220.5t-199 -139.5t-261.5 -48.5q-144 0 -261 48.5t-199 139.5t-126.5 220.5t-44.5 291.5zM382 680q0 -116 23 -205.5t65.5 -151 t104 -93.5t138.5 -32q78 0 140 32t104.5 93.5t65 151t22.5 205.5t-22.5 205.5t-65 151t-104.5 93.5t-140 32q-77 0 -138.5 -32t-104 -93.5t-65.5 -151t-23 -205.5zM365 1488v188h269v-188h-269zM890 1488v188h269v-188h-269z" />
<glyph unicode="&#xd7;" horiz-adv-x="1082" d="M102 893l158 145l282 -260l282 260l159 -146l-282 -260l280 -258l-158 -146l-280 258l-281 -258l-159 146l281 259z" />
<glyph unicode="&#xd8;" horiz-adv-x="1481" d="M132 680q0 161 44.5 290.5t126.5 220.5t199 140t261 49q107 0 197.5 -26.5t165.5 -77.5l65 84h196l-146 -189q75 -91 114.5 -214.5t39.5 -276.5q0 -162 -44.5 -291.5t-127 -220.5t-199 -139.5t-261.5 -48.5q-106 0 -197 26t-165 77l-64 -83h-195l144 187 q-75 91 -114.5 214.5t-39.5 278.5zM432 680q0 -149 38 -255l503 653q-82 84 -210 84q-77 0 -138.5 -32t-104 -93.5t-65.5 -151t-23 -205.5zM554 282q82 -84 209 -84q78 0 140 32t104.5 93.5t65 151t22.5 205.5q0 75 -9.5 138t-27.5 116z" />
<glyph unicode="&#xd9;" horiz-adv-x="1432" d="M151 440v920h299v-920q0 -59 19.5 -104.5t55 -76t84 -46t107.5 -15.5q60 0 109.5 15.5t85.5 46t55.5 76t19.5 104.5v920h298v-924q0 -109 -41 -193.5t-116 -143t-179.5 -89t-231.5 -30.5q-126 0 -230 31t-178.5 90t-115.5 144.5t-41 194.5zM345 1718l288 48l253 -244 l-206 -52z" />
<glyph unicode="&#xda;" horiz-adv-x="1432" d="M151 440v920h299v-920q0 -59 19.5 -104.5t55 -76t84 -46t107.5 -15.5q60 0 109.5 15.5t85.5 46t55.5 76t19.5 104.5v920h298v-924q0 -109 -41 -193.5t-116 -143t-179.5 -89t-231.5 -30.5q-126 0 -230 31t-178.5 90t-115.5 144.5t-41 194.5zM616 1512l239 256l290 -48 l-335 -248z" />
<glyph unicode="&#xdb;" horiz-adv-x="1432" d="M151 440v920h299v-920q0 -59 19.5 -104.5t55 -76t84 -46t107.5 -15.5q60 0 109.5 15.5t85.5 46t55.5 76t19.5 104.5v920h298v-924q0 -109 -41 -193.5t-116 -143t-179.5 -89t-231.5 -30.5q-126 0 -230 31t-178.5 90t-115.5 144.5t-41 194.5zM382 1470l296 232h174 l295 -232h-258l-125 110l-124 -110h-258z" />
<glyph unicode="&#xdc;" horiz-adv-x="1432" d="M151 440v920h299v-920q0 -59 19.5 -104.5t55 -76t84 -46t107.5 -15.5q60 0 109.5 15.5t85.5 46t55.5 76t19.5 104.5v920h298v-924q0 -109 -41 -193.5t-116 -143t-179.5 -89t-231.5 -30.5q-126 0 -230 31t-178.5 90t-115.5 144.5t-41 194.5zM376 1470v188h269v-188h-269z M901 1470v188h269v-188h-269z" />
<glyph unicode="&#xdd;" horiz-adv-x="1246" d="M40 1360h306l278 -600l281 600h302l-435 -902v-458h-298v464zM497 1512l239 256l290 -48l-335 -248z" />
<glyph unicode="&#xde;" horiz-adv-x="1245" d="M148 0v1360h299v-252h202q129 0 229.5 -29.5t169.5 -83.5t105 -130.5t36 -170.5q0 -95 -36 -172t-105 -131.5t-169.5 -84.5t-229.5 -30h-202v-276h-299zM447 494h180q123 0 188.5 48.5t65.5 151.5t-65.5 149.5t-188.5 46.5h-180v-396z" />
<glyph unicode="&#xdf;" horiz-adv-x="1349" d="M126 -192v1170q-1 89 34.5 166.5t100.5 134.5t158 90t208 33q118 0 205 -20t144 -57t85 -89.5t28 -117.5q0 -34 -6.5 -60.5t-17 -48.5t-23.5 -40.5t-27 -34.5q-15 -21 -27.5 -39.5t-21 -38t-13.5 -40.5t-5 -46q0 -26 10 -48t27.5 -41.5t40 -37.5t48.5 -37q32 -25 62 -52 t53.5 -60t37.5 -74t14 -94q0 -92 -43 -158.5t-113.5 -109.5t-162.5 -63t-189 -19q-69 0 -121 7.5t-83 16.5l28 216q26 -8 71 -15t107 -7q42 0 78.5 9.5t63.5 29t42.5 49t15.5 70.5q0 25 -10 47t-25.5 41t-35.5 35t-40 31q-35 26 -67.5 52.5t-57 57t-39 68t-14.5 86.5 q0 60 24.5 112t68.5 104q15 17 31 43.5t16 52.5q0 44 -35.5 73t-116.5 29q-47 0 -84.5 -16.5t-64.5 -44.5t-41.5 -65.5t-13.5 -79.5v-1170h-304z" />
<glyph unicode="&#xe0;" horiz-adv-x="1138" d="M74 272q0 69 34.5 129.5t95 105.5t143.5 71t180 26h178v18q0 49 -12.5 81t-36.5 51.5t-60.5 27.5t-84.5 8q-39 0 -80.5 -5.5t-80.5 -14.5t-74 -20.5t-60 -23.5l-51 205q36 19 81.5 35t95 28t101 19t100.5 7q102 0 186.5 -18t145 -63t94.5 -122t34 -195v-622h-268l-19 103 q-20 -17 -51 -37.5t-70.5 -38.5t-87 -30.5t-101.5 -12.5q-81 0 -143 22.5t-104 61.5t-63.5 91.5t-21.5 112.5zM376 296q0 -52 34.5 -80t85.5 -28q38 0 71.5 7.5t61 17.5t47 20t29.5 16v185h-155q-53 -1 -87 -17t-53.5 -38t-26.5 -45t-7 -38zM199 1398l288 48l253 -244 l-206 -52z" />
<glyph unicode="&#xe1;" horiz-adv-x="1138" d="M74 272q0 69 34.5 129.5t95 105.5t143.5 71t180 26h178v18q0 49 -12.5 81t-36.5 51.5t-60.5 27.5t-84.5 8q-39 0 -80.5 -5.5t-80.5 -14.5t-74 -20.5t-60 -23.5l-51 205q36 19 81.5 35t95 28t101 19t100.5 7q102 0 186.5 -18t145 -63t94.5 -122t34 -195v-622h-268l-19 103 q-20 -17 -51 -37.5t-70.5 -38.5t-87 -30.5t-101.5 -12.5q-81 0 -143 22.5t-104 61.5t-63.5 91.5t-21.5 112.5zM376 296q0 -52 34.5 -80t85.5 -28q38 0 71.5 7.5t61 17.5t47 20t29.5 16v185h-155q-53 -1 -87 -17t-53.5 -38t-26.5 -45t-7 -38zM470 1192l239 256l290 -48 l-335 -248z" />
<glyph unicode="&#xe2;" horiz-adv-x="1138" d="M74 272q0 69 34.5 129.5t95 105.5t143.5 71t180 26h178v18q0 49 -12.5 81t-36.5 51.5t-60.5 27.5t-84.5 8q-39 0 -80.5 -5.5t-80.5 -14.5t-74 -20.5t-60 -23.5l-51 205q36 19 81.5 35t95 28t101 19t100.5 7q102 0 186.5 -18t145 -63t94.5 -122t34 -195v-622h-268l-19 103 q-20 -17 -51 -37.5t-70.5 -38.5t-87 -30.5t-101.5 -12.5q-81 0 -143 22.5t-104 61.5t-63.5 91.5t-21.5 112.5zM376 296q0 -52 34.5 -80t85.5 -28q38 0 71.5 7.5t61 17.5t47 20t29.5 16v185h-155q-53 -1 -87 -17t-53.5 -38t-26.5 -45t-7 -38zM236 1150l296 232h174l295 -232 h-258l-125 110l-124 -110h-258z" />
<glyph unicode="&#xe3;" horiz-adv-x="1138" d="M74 272q0 69 34.5 129.5t95 105.5t143.5 71t180 26h178v18q0 49 -12.5 81t-36.5 51.5t-60.5 27.5t-84.5 8q-39 0 -80.5 -5.5t-80.5 -14.5t-74 -20.5t-60 -23.5l-51 205q36 19 81.5 35t95 28t101 19t100.5 7q102 0 186.5 -18t145 -63t94.5 -122t34 -195v-622h-268l-19 103 q-20 -17 -51 -37.5t-70.5 -38.5t-87 -30.5t-101.5 -12.5q-81 0 -143 22.5t-104 61.5t-63.5 91.5t-21.5 112.5zM376 296q0 -52 34.5 -80t85.5 -28q38 0 71.5 7.5t61 17.5t47 20t29.5 16v185h-155q-53 -1 -87 -17t-53.5 -38t-26.5 -45t-7 -38zM183 1291q43 72 99 112t112 50 q19 3 39 3q59 0 107 -23.5t89 -50.5q31 -24 61 -34.5t52 -8.5q9 1 24 6t32.5 16t36.5 29t37 46l121 -106q-45 -72 -99.5 -112.5t-111.5 -47.5q-12 -2 -23.5 -3.5t-22.5 -1.5q-57 0 -103 23t-87 52q-33 22 -62 34t-50 10q-10 -1 -23.5 -5t-30.5 -14t-36 -28t-39 -46z" />
<glyph unicode="&#xe4;" horiz-adv-x="1138" d="M74 272q0 69 34.5 129.5t95 105.5t143.5 71t180 26h178v18q0 49 -12.5 81t-36.5 51.5t-60.5 27.5t-84.5 8q-39 0 -80.5 -5.5t-80.5 -14.5t-74 -20.5t-60 -23.5l-51 205q36 19 81.5 35t95 28t101 19t100.5 7q102 0 186.5 -18t145 -63t94.5 -122t34 -195v-622h-268l-19 103 q-20 -17 -51 -37.5t-70.5 -38.5t-87 -30.5t-101.5 -12.5q-81 0 -143 22.5t-104 61.5t-63.5 91.5t-21.5 112.5zM376 296q0 -52 34.5 -80t85.5 -28q38 0 71.5 7.5t61 17.5t47 20t29.5 16v185h-155q-53 -1 -87 -17t-53.5 -38t-26.5 -45t-7 -38zM230 1151v188h269v-188h-269z M755 1151v188h269v-188h-269z" />
<glyph unicode="&#xe5;" horiz-adv-x="1138" d="M74 272q0 69 34.5 129.5t95 105.5t143.5 71t180 26h178v18q0 49 -12.5 81t-36.5 51.5t-60.5 27.5t-84.5 8q-39 0 -80.5 -5.5t-80.5 -14.5t-74 -20.5t-60 -23.5l-51 205q36 19 81.5 35t95 28t101 19t100.5 7q102 0 186.5 -18t145 -63t94.5 -122t34 -195v-622h-268l-19 103 q-20 -17 -51 -37.5t-70.5 -38.5t-87 -30.5t-101.5 -12.5q-81 0 -143 22.5t-104 61.5t-63.5 91.5t-21.5 112.5zM376 296q0 -52 34.5 -80t85.5 -28q38 0 71.5 7.5t61 17.5t47 20t29.5 16v185h-155q-53 -1 -87 -17t-53.5 -38t-26.5 -45t-7 -38zM345 1345q0 40 16.5 75t45 61.5 t67 42t81.5 15.5t81.5 -15.5t67 -42t45.5 -61.5t17 -75q0 -41 -17 -76t-45.5 -61.5t-67 -41.5t-81.5 -15t-81.5 15t-67 41.5t-45 61.5t-16.5 76zM470 1345q0 -32 25.5 -55t59.5 -23q37 0 61 23t24 55q0 33 -24 55.5t-61 22.5q-34 0 -59.5 -22.5t-25.5 -55.5z" />
<glyph unicode="&#xe6;" horiz-adv-x="1772" d="M104 278q0 66 32 122t89 96t134.5 62.5t167.5 22.5h195v41q0 49 -10 81t-32 51.5t-56 27.5t-82 8q-39 0 -81 -5.5t-82.5 -14.5t-76 -20.5t-60.5 -23.5l-52 203q37 18 83 34.5t96 29t103 20t103 7.5q109 0 195.5 -21t145.5 -75q128 96 322 96q90 0 168.5 -29t137 -82 t92.5 -127t34 -165v-182h-641q14 -115 81 -176t185 -61q85 0 153 12.5t116 26.5l60 -178q-63 -38 -151 -58.5t-191 -20.5q-248 0 -391 119q-31 -18 -75 -38t-99.5 -36.5t-123 -27.5t-145.5 -11q-83 0 -147.5 22t-108 61t-66 92.5t-22.5 116.5zM405 284q0 -26 9.5 -44t26 -29 t39 -16t47.5 -5q65 0 114 8t81 17v192h-148q-49 0 -81.5 -9t-52 -25.5t-27.5 -39t-8 -49.5zM1034 617h361q0 54 -14 92t-37.5 61t-54 33.5t-64.5 10.5q-38 0 -69 -9.5t-55.5 -32.5t-41 -61t-25.5 -94z" />
<glyph unicode="&#xe7;" horiz-adv-x="957" d="M90 502q0 118 36.5 213.5t104.5 163t164.5 104.5t216.5 37q97 0 166.5 -15t118.5 -39l-55 -196q-36 14 -78 23t-104 9q-60 0 -108.5 -17.5t-83 -54t-53 -93t-18.5 -135.5t18.5 -136t53 -94.5t83 -55.5t108.5 -18q36 0 65.5 2.5t54 7.5t46 11.5t42.5 14.5l41 -189 q-49 -28 -118.5 -46.5t-170.5 -18.5q-122 0 -220 37.5t-167 106t-106 164.5t-37 214zM300 -283q40 3 76 14.5t63.5 31.5t43.5 48.5t16 64.5q0 29 -12 63.5t-40 73.5l239 25q40 -89 40 -168q0 -57 -21.5 -106.5t-66 -88t-112.5 -64t-162 -33.5z" />
<glyph unicode="&#xe8;" horiz-adv-x="1106" d="M83 492q0 125 36.5 223.5t103.5 166t161.5 103t210.5 35.5q90 0 168.5 -29t137 -82t92.5 -127t34 -165v-182h-641q14 -115 81 -176t185 -61q85 0 153 12.5t116 26.5l60 -178q-63 -38 -151 -58.5t-191 -20.5q-131 0 -234 34.5t-174.5 100t-109.5 160.5t-38 217zM391 617 h361q0 54 -14 92t-37.5 61t-54 33.5t-64.5 10.5q-38 0 -69 -9.5t-55.5 -32.5t-41 -61t-25.5 -94zM190 1398l288 48l253 -244l-206 -52z" />
<glyph unicode="&#xe9;" horiz-adv-x="1106" d="M83 492q0 125 36.5 223.5t103.5 166t161.5 103t210.5 35.5q90 0 168.5 -29t137 -82t92.5 -127t34 -165v-182h-641q14 -115 81 -176t185 -61q85 0 153 12.5t116 26.5l60 -178q-63 -38 -151 -58.5t-191 -20.5q-131 0 -234 34.5t-174.5 100t-109.5 160.5t-38 217zM391 617 h361q0 54 -14 92t-37.5 61t-54 33.5t-64.5 10.5q-38 0 -69 -9.5t-55.5 -32.5t-41 -61t-25.5 -94zM461 1192l239 256l290 -48l-335 -248z" />
<glyph unicode="&#xea;" horiz-adv-x="1106" d="M83 492q0 125 36.5 223.5t103.5 166t161.5 103t210.5 35.5q90 0 168.5 -29t137 -82t92.5 -127t34 -165v-182h-641q14 -115 81 -176t185 -61q85 0 153 12.5t116 26.5l60 -178q-63 -38 -151 -58.5t-191 -20.5q-131 0 -234 34.5t-174.5 100t-109.5 160.5t-38 217zM391 617 h361q0 54 -14 92t-37.5 61t-54 33.5t-64.5 10.5q-38 0 -69 -9.5t-55.5 -32.5t-41 -61t-25.5 -94zM227 1150l296 232h174l295 -232h-258l-125 110l-124 -110h-258z" />
<glyph unicode="&#xeb;" horiz-adv-x="1106" d="M83 492q0 125 36.5 223.5t103.5 166t161.5 103t210.5 35.5q90 0 168.5 -29t137 -82t92.5 -127t34 -165v-182h-641q14 -115 81 -176t185 -61q85 0 153 12.5t116 26.5l60 -178q-63 -38 -151 -58.5t-191 -20.5q-131 0 -234 34.5t-174.5 100t-109.5 160.5t-38 217zM391 617 h361q0 54 -14 92t-37.5 61t-54 33.5t-64.5 10.5q-38 0 -69 -9.5t-55.5 -32.5t-41 -61t-25.5 -94zM221 1151v188h269v-188h-269zM746 1151v188h269v-188h-269z" />
<glyph unicode="&#xec;" horiz-adv-x="500" d="M102 0v1000h299v-1000h-299zM-155 1393l288 48l253 -244l-206 -52z" />
<glyph unicode="&#xed;" horiz-adv-x="500" d="M102 0v1000h299v-1000h-299zM116 1187l239 256l290 -48l-335 -248z" />
<glyph unicode="&#xee;" horiz-adv-x="500" d="M102 0v1000h299v-1000h-299zM-118 1146l296 232h174l295 -232h-258l-125 110l-124 -110h-258z" />
<glyph unicode="&#xef;" horiz-adv-x="500" d="M102 0v1000h299v-1000h-299zM-124 1146v188h269v-188h-269zM401 1146v188h269v-188h-269z" />
<glyph unicode="&#xf0;" horiz-adv-x="1245" d="M108 449q0 89 28.5 162t82.5 125.5t130.5 81t172.5 28.5q87 0 170.5 -28.5t147.5 -93.5q-11 101 -40 176t-75 129l-210 -102l-67 95l176 87q-49 27 -106.5 40t-123.5 13l47 218q134 0 245 -36t199 -105l175 87l69 -99l-153 -75q86 -100 131.5 -235t45.5 -302 q0 -143 -35.5 -259.5t-103.5 -199t-167.5 -127.5t-226.5 -45q-117 0 -209 35t-156.5 93.5t-101 134t-43.5 155.5q-1 12 -1.5 24t-0.5 23zM409 414q0 -42 12 -80.5t35.5 -67.5t59 -46.5t82.5 -17.5q109 0 171 78.5t74 248.5q-24 34 -53 56.5t-60 36t-63.5 19t-63.5 5.5 q-54 0 -91 -18.5t-60 -50t-33 -73.5t-10 -90z" />
<glyph unicode="&#xf1;" horiz-adv-x="1238" d="M140 0v1000h252l28 -104q71 59 150.5 91.5t173.5 32.5q81 0 146.5 -17.5t112 -61t71.5 -117t25 -186.5v-638h-298v638q0 46 -8 77t-25 50.5t-43.5 28t-62.5 8.5q-64 0 -118.5 -22t-102.5 -57v-723h-301zM221 1291q43 72 99 112t112 50q19 3 39 3q59 0 107 -23.5t89 -50.5 q31 -24 61 -34.5t52 -8.5q9 1 24 6t32.5 16t36.5 29t37 46l121 -106q-45 -72 -99.5 -112.5t-111.5 -47.5q-12 -2 -23.5 -3.5t-22.5 -1.5q-57 0 -103 23t-87 52q-33 22 -62 34t-50 10q-10 -1 -23.5 -5t-30.5 -14t-36 -28t-39 -46z" />
<glyph unicode="&#xf2;" horiz-adv-x="1210" d="M83 500q0 121 38 217t107 163.5t165.5 103.5t212.5 36q117 0 213 -36t165 -103.5t107 -163.5t38 -217q0 -122 -38 -218t-107 -163.5t-165 -103t-213 -35.5q-116 0 -212.5 35.5t-165.5 103t-107 163.5t-38 218zM383 500q0 -83 16.5 -140.5t46 -93.5t70.5 -52t90 -16 t90.5 16t71 52t46 93.5t16.5 140.5q0 82 -16.5 139.5t-46 93.5t-71 52.5t-90.5 16.5t-90 -16.5t-70.5 -52.5t-46 -93.5t-16.5 -139.5zM228 1396l288 48l253 -244l-206 -52z" />
<glyph unicode="&#xf3;" horiz-adv-x="1210" d="M83 500q0 121 38 217t107 163.5t165.5 103.5t212.5 36q117 0 213 -36t165 -103.5t107 -163.5t38 -217q0 -122 -38 -218t-107 -163.5t-165 -103t-213 -35.5q-116 0 -212.5 35.5t-165.5 103t-107 163.5t-38 218zM383 500q0 -83 16.5 -140.5t46 -93.5t70.5 -52t90 -16 t90.5 16t71 52t46 93.5t16.5 140.5q0 82 -16.5 139.5t-46 93.5t-71 52.5t-90.5 16.5t-90 -16.5t-70.5 -52.5t-46 -93.5t-16.5 -139.5zM499 1190l239 256l290 -48l-335 -248z" />
<glyph unicode="&#xf4;" horiz-adv-x="1210" d="M83 500q0 121 38 217t107 163.5t165.5 103.5t212.5 36q117 0 213 -36t165 -103.5t107 -163.5t38 -217q0 -122 -38 -218t-107 -163.5t-165 -103t-213 -35.5q-116 0 -212.5 35.5t-165.5 103t-107 163.5t-38 218zM383 500q0 -83 16.5 -140.5t46 -93.5t70.5 -52t90 -16 t90.5 16t71 52t46 93.5t16.5 140.5q0 82 -16.5 139.5t-46 93.5t-71 52.5t-90.5 16.5t-90 -16.5t-70.5 -52.5t-46 -93.5t-16.5 -139.5zM265 1148l296 232h174l295 -232h-258l-125 110l-124 -110h-258z" />
<glyph unicode="&#xf5;" horiz-adv-x="1210" d="M83 500q0 121 38 217t107 163.5t165.5 103.5t212.5 36q117 0 213 -36t165 -103.5t107 -163.5t38 -217q0 -122 -38 -218t-107 -163.5t-165 -103t-213 -35.5q-116 0 -212.5 35.5t-165.5 103t-107 163.5t-38 218zM383 500q0 -83 16.5 -140.5t46 -93.5t70.5 -52t90 -16 t90.5 16t71 52t46 93.5t16.5 140.5q0 82 -16.5 139.5t-46 93.5t-71 52.5t-90.5 16.5t-90 -16.5t-70.5 -52.5t-46 -93.5t-16.5 -139.5zM212 1289q43 72 99 112t112 50q19 3 39 3q59 0 107 -23.5t89 -50.5q31 -24 61 -34.5t52 -8.5q9 1 24 6t32.5 16t36.5 29t37 46l121 -106 q-45 -72 -99.5 -112.5t-111.5 -47.5q-12 -2 -23.5 -3.5t-22.5 -1.5q-57 0 -103 23t-87 52q-33 22 -62 34t-50 10q-10 -1 -23.5 -5t-30.5 -14t-36 -28t-39 -46z" />
<glyph unicode="&#xf6;" horiz-adv-x="1210" d="M83 500q0 121 38 217t107 163.5t165.5 103.5t212.5 36q117 0 213 -36t165 -103.5t107 -163.5t38 -217q0 -122 -38 -218t-107 -163.5t-165 -103t-213 -35.5q-116 0 -212.5 35.5t-165.5 103t-107 163.5t-38 218zM383 500q0 -83 16.5 -140.5t46 -93.5t70.5 -52t90 -16 t90.5 16t71 52t46 93.5t16.5 140.5q0 82 -16.5 139.5t-46 93.5t-71 52.5t-90.5 16.5t-90 -16.5t-70.5 -52.5t-46 -93.5t-16.5 -139.5zM259 1149v188h269v-188h-269zM784 1149v188h269v-188h-269z" />
<glyph unicode="&#xf7;" horiz-adv-x="1125" d="M108 486v206h912v-206h-912zM431 176v202h259v-202h-259zM431 800v202h259v-202h-259z" />
<glyph unicode="&#xf8;" horiz-adv-x="1316" d="M124 0l141 154q-54 66 -83 152.5t-29 193.5q0 121 38 217t107 163.5t165.5 103.5t212.5 36q89 0 165 -20.5t139 -60.5l56 61h186l-139 -152q56 -66 86 -153t30 -195q0 -122 -38 -218t-107 -163.5t-165 -103t-213 -35.5q-182 0 -310 84l-58 -64h-184zM453 500 q0 -74 13 -126l348 383q-28 23 -62.5 34t-75.5 11q-49 0 -90 -16.5t-70.5 -52.5t-46 -93.5t-16.5 -139.5zM533 247q29 -26 65 -37.5t78 -11.5q49 0 90.5 16t71 52t46 93.5t16.5 140.5q0 76 -15 132z" />
<glyph unicode="&#xf9;" horiz-adv-x="1238" d="M140 378v622h301v-622q0 -50 8 -84.5t25 -55.5t43 -30.5t62 -9.5q64 0 119 22t103 58v722h298v-1000h-250l-27 108q-70 -60 -150.5 -94t-174.5 -34q-81 0 -147 18t-112.5 63t-72 122t-25.5 195zM237 1378l288 48l253 -244l-206 -52z" />
<glyph unicode="&#xfa;" horiz-adv-x="1238" d="M140 378v622h301v-622q0 -50 8 -84.5t25 -55.5t43 -30.5t62 -9.5q64 0 119 22t103 58v722h298v-1000h-250l-27 108q-70 -60 -150.5 -94t-174.5 -34q-81 0 -147 18t-112.5 63t-72 122t-25.5 195zM508 1172l239 256l290 -48l-335 -248z" />
<glyph unicode="&#xfb;" horiz-adv-x="1238" d="M140 378v622h301v-622q0 -50 8 -84.5t25 -55.5t43 -30.5t62 -9.5q64 0 119 22t103 58v722h298v-1000h-250l-27 108q-70 -60 -150.5 -94t-174.5 -34q-81 0 -147 18t-112.5 63t-72 122t-25.5 195zM274 1131l296 232h174l295 -232h-258l-125 110l-124 -110h-258z" />
<glyph unicode="&#xfc;" horiz-adv-x="1238" d="M140 378v622h301v-622q0 -50 8 -84.5t25 -55.5t43 -30.5t62 -9.5q64 0 119 22t103 58v722h298v-1000h-250l-27 108q-70 -60 -150.5 -94t-174.5 -34q-81 0 -147 18t-112.5 63t-72 122t-25.5 195zM268 1131v188h269v-188h-269zM793 1131v188h269v-188h-269z" />
<glyph unicode="&#xfd;" horiz-adv-x="1084" d="M32 1000h304l203 -704l212 704h304l-377 -1050q-30 -106 -68 -175.5t-83 -111t-96.5 -58.5t-108.5 -17q-45 0 -86 5t-76 13l20 208q17 0 24 -0.5t13 -1t16 -1t33 -0.5t42 6t35 21.5t29.5 42.5t27.5 68zM432 1172l239 256l290 -48l-335 -248z" />
<glyph unicode="&#xfe;" horiz-adv-x="1196" d="M113 -400v1800h301v-468q27 21 55.5 37t62.5 27.5t75.5 17.5t93.5 6q94 0 171 -37t131.5 -105t84 -164t29.5 -214t-29.5 -214t-84 -164t-131.5 -105t-171 -37q-51 0 -91.5 6t-75 17t-64 27t-56.5 37v-467h-301zM414 261q38 -28 83.5 -45.5t98.5 -17.5q116 0 164.5 77.5 t48.5 224.5q0 73 -11.5 129t-37 94t-66 57.5t-98.5 19.5q-53 0 -98.5 -17.5t-83.5 -45.5v-476z" />
<glyph unicode="&#xff;" horiz-adv-x="1084" d="M32 1000h304l203 -704l212 704h304l-377 -1050q-30 -106 -68 -175.5t-83 -111t-96.5 -58.5t-108.5 -17q-45 0 -86 5t-76 13l20 208q17 0 24 -0.5t13 -1t16 -1t33 -0.5t42 6t35 21.5t29.5 42.5t27.5 68zM192 1131v188h269v-188h-269zM717 1131v188h269v-188h-269z" />
<glyph unicode="&#x131;" horiz-adv-x="500" d="M102 0v1000h299v-1000h-299z" />
<glyph unicode="&#x152;" horiz-adv-x="1837" d="M102 680q0 157 49.5 283t142 214.5t226 136.5t301.5 48h33q16 0 33 -2h848v-220h-577v-346h512v-220h-512v-354h577v-220h-835q-20 -2 -39 -3t-40 -1q-168 0 -301.5 48t-226 136.5t-142 215t-49.5 284.5zM401 680q0 -107 28 -193t82 -147t132 -93.5t178 -32.5 q9 0 18.5 0.5t19.5 1.5v926q-9 1 -18.5 1.5t-19.5 0.5q-100 0 -178 -32.5t-132 -92.5t-82 -146t-28 -193z" />
<glyph unicode="&#x153;" horiz-adv-x="1911" d="M103 500q0 121 38 217t107 163.5t165.5 103.5t212.5 36q115 0 209 -34.5t163 -99.5q67 66 160 100t208 34q90 0 168.5 -29t137 -82t92.5 -127t34 -165v-182h-641q14 -115 81 -176t185 -61q85 0 153 12.5t116 26.5l60 -178q-63 -38 -151 -58.5t-191 -20.5 q-132 0 -235 34.5t-175 100.5q-69 -66 -164 -100.5t-210 -34.5q-116 0 -212.5 35.5t-165.5 103t-107 163.5t-38 218zM403 500q0 -83 16.5 -140.5t46 -93.5t70.5 -52t90 -16t90.5 16t71 52t46 93.5t16.5 140.5q0 82 -16.5 139.5t-46 93.5t-71 52.5t-90.5 16.5t-90 -16.5 t-70.5 -52.5t-46 -93.5t-16.5 -139.5zM1162 617h361q0 54 -14 92t-37.5 61t-54 33.5t-64.5 10.5q-38 0 -69 -9.5t-55.5 -32.5t-41 -61t-25.5 -94z" />
<glyph unicode="&#x178;" horiz-adv-x="1246" d="M40 1360h306l278 -600l281 600h302l-435 -902v-458h-298v464zM257 1470v188h269v-188h-269zM782 1470v188h269v-188h-269z" />
<glyph unicode="&#x2c6;" horiz-adv-x="932" d="M94 1148l296 232h174l295 -232h-258l-125 110l-124 -110h-258z" />
<glyph unicode="&#x2da;" horiz-adv-x="622" d="M102 1422q0 40 16.5 75t45 61.5t67 42t81.5 15.5t81.5 -15.5t67 -42t45.5 -61.5t17 -75q0 -41 -17 -76t-45.5 -61.5t-67 -41.5t-81.5 -15t-81.5 15t-67 41.5t-45 61.5t-16.5 76zM227 1422q0 -32 25.5 -55t59.5 -23q37 0 61 23t24 55q0 33 -24 55.5t-61 22.5 q-34 0 -59.5 -22.5t-25.5 -55.5z" />
<glyph unicode="&#x2dc;" horiz-adv-x="1011" d="M102 1267q43 72 99 112t112 50q19 3 39 3q59 0 107 -23.5t89 -50.5q31 -24 61 -34.5t52 -8.5q9 1 24 6t32.5 16t36.5 29t37 46l121 -106q-45 -72 -99.5 -112.5t-111.5 -47.5q-12 -2 -23.5 -3.5t-22.5 -1.5q-57 0 -103 23t-87 52q-33 22 -62 34t-50 10q-10 -1 -23.5 -5 t-30.5 -14t-36 -28t-39 -46z" />
<glyph unicode="&#x2000;" horiz-adv-x="930" />
<glyph unicode="&#x2001;" horiz-adv-x="1860" />
<glyph unicode="&#x2002;" horiz-adv-x="930" />
<glyph unicode="&#x2003;" horiz-adv-x="1860" />
<glyph unicode="&#x2004;" horiz-adv-x="620" />
<glyph unicode="&#x2005;" horiz-adv-x="465" />
<glyph unicode="&#x2006;" horiz-adv-x="310" />
<glyph unicode="&#x2007;" horiz-adv-x="310" />
<glyph unicode="&#x2008;" horiz-adv-x="232" />
<glyph unicode="&#x2009;" horiz-adv-x="372" />
<glyph unicode="&#x200a;" horiz-adv-x="103" />
<glyph unicode="&#x2010;" horiz-adv-x="764" d="M102 570v226h563v-226h-563z" />
<glyph unicode="&#x2011;" horiz-adv-x="764" d="M102 570v226h563v-226h-563z" />
<glyph unicode="&#x2012;" horiz-adv-x="764" d="M102 570v226h563v-226h-563z" />
<glyph unicode="&#x2013;" horiz-adv-x="1134" d="M78 538v194h977v-194h-977z" />
<glyph unicode="&#x2014;" horiz-adv-x="1797" d="M100 538v194h1586v-194h-1586z" />
<glyph unicode="&#x2018;" horiz-adv-x="580" d="M110 910l176 492l205 -20l-94 -472h-287z" />
<glyph unicode="&#x2019;" horiz-adv-x="569" d="M117 930l93 472h287l-175 -492z" />
<glyph unicode="&#x201a;" horiz-adv-x="582" d="M116 -272l80 484h282l-168 -516z" />
<glyph unicode="&#x201c;" horiz-adv-x="959" d="M456.007 1382.06l-92.9941 -471.971h-286.982l174.989 491.97zM837.007 1382.06l-92.9941 -471.971h-286.982l174.989 491.97z" />
<glyph unicode="&#x201d;" horiz-adv-x="959" d="M115 930l93 472h287l-175 -492zM492 930l93 472h287l-175 -492z" />
<glyph unicode="&#x201e;" horiz-adv-x="946" d="M115 -272l80 484h282l-168 -516zM470 -272l80 484h282l-168 -516z" />
<glyph unicode="&#x2022;" horiz-adv-x="792" d="M117 634q0 55 21 103.5t58.5 84.5t88.5 57t110 21q60 0 111.5 -21t90 -57t60 -84.5t21.5 -103.5t-21.5 -103t-60 -83.5t-90 -56t-111.5 -20.5q-59 0 -110 20.5t-88.5 56t-58.5 83.5t-21 103z" />
<glyph unicode="&#x2026;" horiz-adv-x="1680" d="M131 0v244h284v-244h-284zM690 0v244h284v-244h-284zM1262 0v244h284v-244h-284z" />
<glyph unicode="&#x202f;" horiz-adv-x="372" />
<glyph unicode="&#x2039;" horiz-adv-x="700" d="M102 428v84l373 406l134 -110l-228 -336l228 -320l-134 -110z" />
<glyph unicode="&#x203a;" horiz-adv-x="700" d="M94 152l226 336l-226 320l134 110l372 -386v-84l-372 -406z" />
<glyph unicode="&#x2044;" horiz-adv-x="1146" d="M11 0l916 1360h192l-916 -1360h-192z" />
<glyph unicode="&#x205f;" horiz-adv-x="465" />
<glyph unicode="&#x2074;" horiz-adv-x="724" d="M29 792v100l375 475h183v-453h85v-122h-85v-123h-164v123h-394zM204 914h219v281z" />
<glyph unicode="&#x20ac;" d="M61 446v146h187q-3 43 -3 90v28q0 14 1 28h-185v146h202q22 115 69.5 206.5t118 156t162 99t201.5 34.5q103 0 173.5 -16t121.5 -37l-51 -202q-47 17 -106 27t-125 10q-98 0 -165.5 -67t-94.5 -211h474v-146h-489q0 -14 -0.5 -28t-0.5 -28q0 -48 3 -90h487v-146h-467 q31 -129 97 -188.5t159 -59.5q80 0 147.5 16.5t118.5 36.5l46 -203q-57 -29 -141.5 -48.5t-205.5 -19.5q-101 0 -186.5 32.5t-152.5 93t-114.5 146.5t-71.5 194h-209z" />
<glyph unicode="&#x2122;" horiz-adv-x="1403" d="M81 1248v112h509v-112h-184v-382h-139v382h-186zM679 866v494h186l124 -200l126 200h166v-494h-126v341l-122 -199h-89l-124 203v-345h-141z" />
<glyph unicode="&#xe000;" horiz-adv-x="1000" d="M0 1000h1000v-1000h-1000v1000z" />
<glyph unicode="&#xfb01;" horiz-adv-x="1360" d="M41 818l8 182h141v33q0 105 35.5 180t101.5 123.5t159 71t207 22.5q73 0 146 -9t127 -21v-204q-50 5 -123.5 9.5t-148.5 4.5q-54 0 -92.5 -9.5t-63 -30.5t-36.5 -55t-12 -82v-33h269v-182h-269v-818h-300v818h-149zM846 0v1000h299v-1000h-299z" />
<glyph unicode="&#xfb02;" horiz-adv-x="1392" d="M41 818l8 182h141v33q0 105 35.5 180t101.5 123.5t159 71t207 22.5q73 0 146 -9t127 -21h264v-1400h-298v1199q-50 4 -112.5 7.5t-125.5 3.5q-54 0 -92.5 -9.5t-63 -30.5t-36.5 -55t-12 -82v-33h269v-182h-269v-818h-300v818h-149z" />
<glyph unicode="&#xfb03;" horiz-adv-x="2181" d="M1720 1190v212h305v-212h-305zM1724 0v1000h298v-1000h-298zM824 813l7 187h138v38q0 106 29.5 179t84 118t131.5 65t172 20q56 0 113 -9t97 -21l-17 -204q-30 4 -73 9t-88 5q-79 0 -114.5 -36t-35.5 -126v-38h269v-187h-269v-813h-299v813h-145zM44 813l7 187h138v38 q0 106 29.5 179t84 118t131.5 65t172 20q56 0 113 -9t97 -21l-17 -204q-30 4 -73 9t-88 5q-79 0 -114.5 -36t-35.5 -126v-38h269v-187h-269v-813h-299v813h-145z" />
<glyph unicode="&#xfb04;" horiz-adv-x="2181" d="M1724 0v1400h298v-1400h-298zM824 813l7 187h138v38q0 106 29.5 179t84 118t131.5 65t172 20q56 0 113 -9t97 -21l-17 -204q-30 4 -73 9t-88 5q-79 0 -114.5 -36t-35.5 -126v-38h269v-187h-269v-813h-299v813h-145zM44 813l7 187h138v38q0 106 29.5 179t84 118t131.5 65 t172 20q56 0 113 -9t97 -21l-17 -204q-30 4 -73 9t-88 5q-79 0 -114.5 -36t-35.5 -126v-38h269v-187h-269v-813h-299v813h-145z" />
</font>
</defs>
</svg>
